<svg id="Layer_1" data-name="Layer 1" xmlns="http://www.w3.org/2000/svg" viewBox="0 0 223.33 64.6"><defs><style>.cls-1{fill:#2b76a2;}.cls-2{fill:#fff;}.cls-3{fill:none;stroke:#fff;stroke-width:0.18px;}</style></defs><title>logo</title><polygon class="cls-1" points="199.29 64.6 0 64.6 0 0 223.34 0 199.29 64.6"/><path class="cls-2" d="M176.55,30.3c.58-.83,8.16-11.61,11-15.52h-3.46c-.85,1.69-5.9,9-8.78,13.39L168.33,17.3c-1-1.54-1.86-2.39-3.66-2.42h-2.84s8.32,12,11,16.2c0,1.46.11,8.56-.37,11h4.47a110.64,110.64,0,0,1-.37-11.76"/><path class="cls-2" d="M84.78,14.73H81.87s.33,5,.33,11.94-.45,14.19-9.5,14.19S63,34.08,63,31.2c0-2.44,0-7.77.09-13.53v-.2a2.66,2.66,0,0,0-2.48-2.8H58.93c0,1.22.11,8.39.11,16.59s4.74,11.42,13,11.42,12.59-5,12.59-11.81c0-2.89.19-9.42.12-16.14"/><path class="cls-2" d="M111.94,37.37a11,11,0,0,1-8.59,3.94c-4.31,0-11.14-2.75-11.14-12.91,0-7.13,3.28-12.81,10.51-12.81a10.14,10.14,0,0,1,8.11,3.87l.94-3.85a29.8,29.8,0,0,0-8.24-1.51C99.23,13.87,88,15.66,88,28.69c0,11.71,9.49,14.06,14.75,14.06a24.94,24.94,0,0,0,9.92-2.35v-.21l-.7-2.82"/><path class="cls-2" d="M136.06,42.14h.34m2.48-.06c-1.24-.79-8.95-9.3-9.59-9.84,4.26-.35,7.85-4.26,7.85-9.28,0-4.74-4.08-8.35-9.61-8.35-1.94,0-6.56.05-10.78,0,0,.87.17,11.84.17,14.75s-.12,8-.37,12.72l4.21,0c-.12-1.31-.37-6.28-.37-9.26,0,0,4.65-.13,6,0,0,0,5.95,7.64,6.17,7.87A5,5,0,0,0,136,42.14ZM125.1,31a20,20,0,0,1-4.62-.43V16.16a26.63,26.63,0,0,1,4.1-.29c4.31,0,9.09,2.16,9.09,7.53S129,31,125.1,31"/><path class="cls-2" d="M143.53,42.07h0a33,33,0,0,1,2.33-6.65l.79-1.87c.13-.32.25-.59.38-.89h11.65c.11.28.24.58.37.89l.78,1.87c1.32,3.14,2.86,6.64,2.86,6.64h4.52C163.52,35,155.16,16.29,154.3,14.61h-1c-3.36,7.14-10.81,22.2-13.4,27.45h3.64m-.9,0H143m4.87-11.27.43-1c1.65-3.66,4.55-9.72,4.55-9.72,2.12,4.12,3.64,7.38,4.67,9.72l.43,1c-2.81.09-7.52.06-10.08-.07"/><path class="cls-2" d="M27.33,37.55c0,5.63,3.64,5.5,4.93,5.55,1.86.08,6.89.06,6.89.06,9.07,0,15.57-5.81,15.57-14.74,0-9.93-9-13.87-14.57-14-2.57-.08-9.61-.08-12.77-.12l-.05,23.29m11.29,3.72c-1.2,0-1.69,0-3.63-.05A3.27,3.27,0,0,1,31.63,38c0-3.44,0-21.77,0-21.77,1.26-.06,2.52-.24,4.76-.25,3.32,0,14,1.07,14,12.44,0,7.24-2.48,12.79-11.8,12.83"/><polygon class="cls-2" points="27.39 49.27 28.13 49.27 28.13 54.46 30.58 54.46 30.58 55.09 27.39 55.09 27.39 49.27"/><polygon class="cls-3" points="27.39 49.27 28.13 49.27 28.13 54.46 30.58 54.46 30.58 55.09 27.39 55.09 27.39 49.27"/><path class="cls-2" d="M33.3,53.26l-.6,1.83h-.76l1.95-5.82h.89l2,5.82H36l-.61-1.83Zm1.88-.59L34.62,51c-.13-.38-.21-.73-.3-1.07h0c-.09.35-.18.7-.29,1.06l-.57,1.68Z"/><path class="cls-3" d="M33.3,53.26l-.6,1.83h-.76l1.95-5.82h.89l2,5.82H36l-.61-1.83Zm1.88-.59L34.62,51c-.13-.38-.21-.73-.3-1.07h0c-.09.35-.18.7-.29,1.06l-.57,1.68Z"/><path class="cls-2" d="M38.33,49.35a7.13,7.13,0,0,1,1.36-.12,2.29,2.29,0,0,1,1.57.42,1.22,1.22,0,0,1,.48,1,1.37,1.37,0,0,1-1,1.27v0A1.5,1.5,0,0,1,42,53.43a1.59,1.59,0,0,1-.48,1.17,2.87,2.87,0,0,1-2,.54,7.73,7.73,0,0,1-1.15-.07Zm.74,2.38h.68c.78,0,1.24-.41,1.24-1s-.51-1-1.26-1a2.77,2.77,0,0,0-.66.06Zm0,2.79a3.65,3.65,0,0,0,.63,0c.76,0,1.47-.28,1.47-1.13s-.67-1.12-1.48-1.12h-.62Z"/><path class="cls-3" d="M38.33,49.35a7.13,7.13,0,0,1,1.36-.12,2.29,2.29,0,0,1,1.57.42,1.22,1.22,0,0,1,.48,1,1.37,1.37,0,0,1-1,1.27v0A1.5,1.5,0,0,1,42,53.43a1.59,1.59,0,0,1-.48,1.17,2.87,2.87,0,0,1-2,.54,7.73,7.73,0,0,1-1.15-.07Zm.74,2.38h.68c.78,0,1.24-.41,1.24-1s-.51-1-1.26-1a2.77,2.77,0,0,0-.66.06Zm0,2.79a3.65,3.65,0,0,0,.63,0c.76,0,1.47-.28,1.47-1.13s-.67-1.12-1.48-1.12h-.62Z"/><path class="cls-2" d="M48.67,52.12c0,2-1.2,3.07-2.66,3.07a2.66,2.66,0,0,1-2.58-3c0-1.85,1.13-3.06,2.66-3.06s2.58,1.22,2.58,2.95m-4.45.09c0,1.25.66,2.36,1.83,2.36s1.84-1.09,1.84-2.42c0-1.15-.6-2.36-1.83-2.36s-1.84,1.15-1.84,2.42"/><path class="cls-3" d="M48.67,52.12c0,2-1.2,3.07-2.66,3.07a2.66,2.66,0,0,1-2.58-3c0-1.85,1.13-3.06,2.66-3.06S48.67,50.39,48.67,52.12Zm-4.45.09c0,1.25.66,2.36,1.83,2.36s1.84-1.09,1.84-2.42c0-1.15-.6-2.36-1.83-2.36S44.22,50.94,44.22,52.21Z"/><path class="cls-2" d="M50.47,49.35a7.45,7.45,0,0,1,1.42-.12,2.29,2.29,0,0,1,1.66.47A1.47,1.47,0,0,1,54,50.81a1.52,1.52,0,0,1-1.09,1.48v0a1.44,1.44,0,0,1,.85,1.17,8.68,8.68,0,0,0,.44,1.6h-.77a7.65,7.65,0,0,1-.38-1.39c-.17-.8-.48-1.11-1.15-1.13h-.7v2.52h-.74ZM51.21,52H52c.79,0,1.3-.44,1.3-1.11S52.73,49.81,52,49.8a3.32,3.32,0,0,0-.74.07Z"/><path class="cls-3" d="M50.47,49.35a7.45,7.45,0,0,1,1.42-.12,2.29,2.29,0,0,1,1.66.47A1.47,1.47,0,0,1,54,50.81a1.52,1.52,0,0,1-1.09,1.48v0a1.44,1.44,0,0,1,.85,1.17,8.68,8.68,0,0,0,.44,1.6h-.77a7.65,7.65,0,0,1-.38-1.39c-.17-.8-.48-1.11-1.15-1.13h-.7v2.52h-.74ZM51.21,52H52c.79,0,1.3-.44,1.3-1.11S52.73,49.81,52,49.8a3.32,3.32,0,0,0-.74.07Z"/><path class="cls-2" d="M56.94,53.26l-.6,1.83h-.76l2-5.82h.89l2,5.82h-.79L59,53.26Zm1.88-.59L58.26,51c-.13-.38-.21-.73-.3-1.07h0c-.08.35-.17.7-.29,1.06l-.56,1.68Z"/><path class="cls-3" d="M56.94,53.26l-.6,1.83h-.76l2-5.82h.89l2,5.82h-.79L59,53.26Zm1.88-.59L58.26,51c-.13-.38-.21-.73-.3-1.07h0c-.08.35-.17.7-.29,1.06l-.56,1.68Z"/><polygon class="cls-2" points="62.55 49.91 60.8 49.91 60.8 49.27 65.05 49.27 65.05 49.91 63.3 49.91 63.3 55.09 62.55 55.09 62.55 49.91"/><polygon class="cls-3" points="62.55 49.91 60.8 49.91 60.8 49.27 65.05 49.27 65.05 49.91 63.3 49.91 63.3 55.09 62.55 55.09 62.55 49.91"/><path class="cls-2" d="M71.24,52.12c0,2-1.2,3.07-2.66,3.07a2.66,2.66,0,0,1-2.58-3c0-1.85,1.13-3.06,2.66-3.06s2.58,1.22,2.58,2.95m-4.45.09c0,1.25.66,2.36,1.83,2.36s1.84-1.09,1.84-2.42c0-1.15-.6-2.36-1.83-2.36s-1.84,1.15-1.84,2.42"/><path class="cls-3" d="M71.24,52.12c0,2-1.2,3.07-2.66,3.07a2.66,2.66,0,0,1-2.58-3c0-1.85,1.13-3.06,2.66-3.06S71.24,50.39,71.24,52.12Zm-4.45.09c0,1.25.66,2.36,1.83,2.36s1.84-1.09,1.84-2.42c0-1.15-.6-2.36-1.83-2.36S66.79,50.94,66.79,52.21Z"/><rect class="cls-2" x="73.05" y="49.27" width="0.74" height="5.82"/><rect class="cls-3" x="73.05" y="49.27" width="0.74" height="5.82"/><path class="cls-2" d="M75.89,49.35a7.38,7.38,0,0,1,1.42-.12A2.32,2.32,0,0,1,79,49.7a1.47,1.47,0,0,1,.45,1.11,1.52,1.52,0,0,1-1.08,1.48v0a1.43,1.43,0,0,1,.84,1.17,10.77,10.77,0,0,0,.44,1.6h-.76a7.35,7.35,0,0,1-.39-1.39c-.17-.8-.47-1.11-1.15-1.13h-.69v2.52h-.74ZM76.63,52h.75c.8,0,1.3-.44,1.3-1.11s-.54-1.08-1.32-1.09a3.21,3.21,0,0,0-.73.07Z"/><path class="cls-3" d="M75.89,49.35a7.38,7.38,0,0,1,1.42-.12A2.32,2.32,0,0,1,79,49.7a1.47,1.47,0,0,1,.45,1.11,1.52,1.52,0,0,1-1.08,1.48v0a1.43,1.43,0,0,1,.84,1.17,10.77,10.77,0,0,0,.44,1.6h-.76a7.35,7.35,0,0,1-.39-1.39c-.17-.8-.47-1.11-1.15-1.13h-.69v2.52h-.74ZM76.63,52h.75c.8,0,1.3-.44,1.3-1.11s-.54-1.08-1.32-1.09a3.21,3.21,0,0,0-.73.07Z"/><polygon class="cls-2" points="84.28 52.36 82.05 52.36 82.05 54.46 84.54 54.46 84.54 55.09 81.31 55.09 81.31 49.27 84.41 49.27 84.41 49.9 82.05 49.9 82.05 51.74 84.28 51.74 84.28 52.36"/><polygon class="cls-3" points="84.28 52.36 82.05 52.36 82.05 54.46 84.54 54.46 84.54 55.09 81.31 55.09 81.31 49.27 84.41 49.27 84.41 49.9 82.05 49.9 82.05 51.74 84.28 51.74 84.28 52.36"/><path class="cls-2" d="M86.23,54.17a2.54,2.54,0,0,0,1.32.38c.76,0,1.21-.4,1.21-1s-.31-.85-1.09-1.16c-.93-.33-1.51-.83-1.51-1.65A1.66,1.66,0,0,1,88,49.17a2.52,2.52,0,0,1,1.27.29l-.2.61A2.33,2.33,0,0,0,88,49.8c-.79,0-1.08.47-1.08.87s.35.81,1.14,1.12c1,.38,1.46.86,1.46,1.71s-.65,1.68-2,1.68A3,3,0,0,1,86,54.81Z"/><path class="cls-3" d="M86.23,54.17a2.54,2.54,0,0,0,1.32.38c.76,0,1.21-.4,1.21-1s-.31-.85-1.09-1.16c-.93-.33-1.51-.83-1.51-1.65A1.66,1.66,0,0,1,88,49.17a2.52,2.52,0,0,1,1.27.29l-.2.61A2.33,2.33,0,0,0,88,49.8c-.79,0-1.08.47-1.08.87s.35.81,1.14,1.12c1,.38,1.46.86,1.46,1.71s-.65,1.68-2,1.68A3,3,0,0,1,86,54.81Z"/><path class="cls-2" d="M94,49.35a10.35,10.35,0,0,1,1.57-.12,3.28,3.28,0,0,1,2.33.72A2.71,2.71,0,0,1,98.68,52a3.08,3.08,0,0,1-.83,2.26,3.48,3.48,0,0,1-2.54.84A10.33,10.33,0,0,1,94,55.07Zm.74,5.14a4,4,0,0,0,.75,0,2.22,2.22,0,0,0,2.44-2.47,2.06,2.06,0,0,0-2.32-2.25,4.26,4.26,0,0,0-.87.08Z"/><path class="cls-3" d="M94,49.35a10.35,10.35,0,0,1,1.57-.12,3.28,3.28,0,0,1,2.33.72A2.71,2.71,0,0,1,98.68,52a3.08,3.08,0,0,1-.83,2.26,3.48,3.48,0,0,1-2.54.84A10.33,10.33,0,0,1,94,55.07Zm.74,5.14a4,4,0,0,0,.75,0,2.22,2.22,0,0,0,2.44-2.47,2.06,2.06,0,0,0-2.32-2.25,4.26,4.26,0,0,0-.87.08Z"/><polygon class="cls-2" points="103.43 52.36 101.2 52.36 101.2 54.46 103.69 54.46 103.69 55.09 100.46 55.09 100.46 49.27 103.56 49.27 103.56 49.9 101.2 49.9 101.2 51.74 103.43 51.74 103.43 52.36"/><polygon class="cls-3" points="103.43 52.36 101.2 52.36 101.2 54.46 103.69 54.46 103.69 55.09 100.46 55.09 100.46 49.27 103.56 49.27 103.56 49.9 101.2 49.9 101.2 51.74 103.43 51.74 103.43 52.36"/><path class="cls-2" d="M105.38,49.35a7.38,7.38,0,0,1,1.42-.12,2.32,2.32,0,0,1,1.66.47,1.47,1.47,0,0,1,.45,1.11,1.52,1.52,0,0,1-1.08,1.48v0a1.43,1.43,0,0,1,.84,1.17,10.77,10.77,0,0,0,.44,1.6h-.76A7.35,7.35,0,0,1,108,53.7c-.17-.8-.47-1.11-1.15-1.13h-.69v2.52h-.74Zm.74,2.65h.75c.8,0,1.3-.44,1.3-1.11s-.54-1.08-1.32-1.09a3.21,3.21,0,0,0-.73.07Z"/><path class="cls-3" d="M105.38,49.35a7.38,7.38,0,0,1,1.42-.12,2.32,2.32,0,0,1,1.66.47,1.47,1.47,0,0,1,.45,1.11,1.52,1.52,0,0,1-1.08,1.48v0a1.43,1.43,0,0,1,.84,1.17,10.77,10.77,0,0,0,.44,1.6h-.76A7.35,7.35,0,0,1,108,53.7c-.17-.8-.47-1.11-1.15-1.13h-.69v2.52h-.74Zm.74,2.65h.75c.8,0,1.3-.44,1.3-1.11s-.54-1.08-1.32-1.09a3.21,3.21,0,0,0-.73.07Z"/><path class="cls-2" d="M115.64,52.53c0-.81-.1-1.78-.09-2.51h0c-.2.68-.44,1.41-.73,2.21l-1,2.83h-.56l-.93-2.78c-.27-.82-.5-1.57-.67-2.26h0c0,.73-.06,1.7-.11,2.57l-.16,2.5h-.7l.4-5.82H112l1,2.81c.24.72.44,1.36.58,2h0c.14-.58.34-1.22.6-2l1-2.81h1l.36,5.82h-.73Z"/><path class="cls-3" d="M115.64,52.53c0-.81-.1-1.78-.09-2.51h0c-.2.68-.44,1.41-.73,2.21l-1,2.83h-.56l-.93-2.78c-.27-.82-.5-1.57-.67-2.26h0c0,.73-.06,1.7-.11,2.57l-.16,2.5h-.7l.4-5.82H112l1,2.81c.24.72.44,1.36.58,2h0c.14-.58.34-1.22.6-2l1-2.81h1l.36,5.82h-.73Z"/><path class="cls-2" d="M119.39,53.26l-.59,1.83H118l2-5.82h.89l2,5.82H122l-.61-1.83Zm1.88-.59L120.71,51c-.13-.38-.21-.73-.3-1.07h0c-.09.35-.18.7-.29,1.06l-.56,1.68Z"/><path class="cls-3" d="M119.39,53.26l-.59,1.83H118l2-5.82h.89l2,5.82H122l-.61-1.83Zm1.88-.59L120.71,51c-.13-.38-.21-.73-.3-1.07h0c-.09.35-.18.7-.29,1.06l-.56,1.68Z"/><polygon class="cls-2" points="125 49.91 123.25 49.91 123.25 49.27 127.5 49.27 127.5 49.91 125.75 49.91 125.75 55.09 125 55.09 125 49.91"/><polygon class="cls-3" points="125 49.91 123.25 49.91 123.25 49.27 127.5 49.27 127.5 49.91 125.75 49.91 125.75 55.09 125 55.09 125 49.91"/><path class="cls-2" d="M133.7,52.12c0,2-1.2,3.07-2.67,3.07a2.66,2.66,0,0,1-2.58-3,2.75,2.75,0,0,1,2.67-3.06c1.56,0,2.58,1.22,2.58,2.95m-4.46.09c0,1.25.67,2.36,1.83,2.36s1.84-1.09,1.84-2.42c0-1.15-.59-2.36-1.83-2.36s-1.84,1.15-1.84,2.42"/><path class="cls-3" d="M133.7,52.12c0,2-1.2,3.07-2.67,3.07a2.66,2.66,0,0,1-2.58-3,2.75,2.75,0,0,1,2.67-3.06C132.68,49.17,133.7,50.39,133.7,52.12Zm-4.46.09c0,1.25.67,2.36,1.83,2.36s1.84-1.09,1.84-2.42c0-1.15-.59-2.36-1.83-2.36S129.24,50.94,129.24,52.21Z"/><polygon class="cls-2" points="135.49 49.27 136.24 49.27 136.24 54.46 138.69 54.46 138.69 55.09 135.49 55.09 135.49 49.27"/><polygon class="cls-3" points="135.49 49.27 136.24 49.27 136.24 54.46 138.69 54.46 138.69 55.09 135.49 55.09 135.49 49.27"/><path class="cls-2" d="M145,52.12c0,2-1.2,3.07-2.67,3.07a2.66,2.66,0,0,1-2.58-3,2.75,2.75,0,0,1,2.67-3.06c1.56,0,2.58,1.22,2.58,2.95m-4.46.09c0,1.25.67,2.36,1.83,2.36s1.84-1.09,1.84-2.42c0-1.15-.59-2.36-1.83-2.36s-1.84,1.15-1.84,2.42"/><path class="cls-3" d="M145,52.12c0,2-1.2,3.07-2.67,3.07a2.66,2.66,0,0,1-2.58-3,2.75,2.75,0,0,1,2.67-3.06C144,49.17,145,50.39,145,52.12Zm-4.46.09c0,1.25.67,2.36,1.83,2.36s1.84-1.09,1.84-2.42c0-1.15-.59-2.36-1.83-2.36S140.55,50.94,140.55,52.21Z"/><path class="cls-2" d="M151.19,54.83a5.24,5.24,0,0,1-1.76.32,2.88,2.88,0,0,1-2.14-.77,3,3,0,0,1-.81-2.17,2.9,2.9,0,0,1,3.11-3,3.3,3.3,0,0,1,1.43.27l-.17.61a2.93,2.93,0,0,0-1.27-.25,2.16,2.16,0,0,0-2.31,2.34,2.12,2.12,0,0,0,2.21,2.35,2.3,2.3,0,0,0,1-.16V52.64H149.3V52h1.89Z"/><path class="cls-3" d="M151.19,54.83a5.24,5.24,0,0,1-1.76.32,2.88,2.88,0,0,1-2.14-.77,3,3,0,0,1-.81-2.17,2.9,2.9,0,0,1,3.11-3,3.3,3.3,0,0,1,1.43.27l-.17.61a2.93,2.93,0,0,0-1.27-.25,2.16,2.16,0,0,0-2.31,2.34,2.12,2.12,0,0,0,2.21,2.35,2.3,2.3,0,0,0,1-.16V52.64H149.3V52h1.89Z"/><rect class="cls-2" x="153.17" y="49.27" width="0.74" height="5.82"/><rect class="cls-3" x="153.17" y="49.27" width="0.74" height="5.82"/><path class="cls-2" d="M160.78,56c-.77-.21-1.53-.44-2.19-.68a1.17,1.17,0,0,0-.35-.08,2.67,2.67,0,0,1-2.53-2.95c0-1.87,1.12-3.07,2.67-3.07S161,50.4,161,52.12a2.72,2.72,0,0,1-1.63,2.79v0c.57.15,1.19.29,1.68.38Zm-.61-3.8c0-1.16-.6-2.36-1.81-2.36s-1.87,1.17-1.86,2.43.66,2.35,1.82,2.35,1.85-1.09,1.85-2.42"/><path class="cls-3" d="M160.78,56c-.77-.21-1.53-.44-2.19-.68a1.17,1.17,0,0,0-.35-.08,2.67,2.67,0,0,1-2.53-2.95c0-1.87,1.12-3.07,2.67-3.07S161,50.4,161,52.12a2.72,2.72,0,0,1-1.63,2.79v0c.57.15,1.19.29,1.68.38Zm-.61-3.8c0-1.16-.6-2.36-1.81-2.36s-1.87,1.17-1.86,2.43.66,2.35,1.82,2.35S160.17,53.48,160.17,52.15Z"/><path class="cls-2" d="M163.45,49.27v3.44c0,1.31.57,1.86,1.34,1.86s1.4-.57,1.4-1.86V49.27h.75v3.39c0,1.79-.93,2.52-2.17,2.52s-2.07-.68-2.07-2.48V49.27Z"/><path class="cls-3" d="M163.45,49.27v3.44c0,1.31.57,1.86,1.34,1.86s1.4-.57,1.4-1.86V49.27h.75v3.39c0,1.79-.93,2.52-2.17,2.52s-2.07-.68-2.07-2.48V49.27Z"/><polygon class="cls-2" points="171.99 52.36 169.76 52.36 169.76 54.46 172.25 54.46 172.25 55.09 169.02 55.09 169.02 49.27 172.12 49.27 172.12 49.9 169.76 49.9 169.76 51.74 171.99 51.74 171.99 52.36"/><polygon class="cls-3" points="171.99 52.36 169.76 52.36 169.76 54.46 172.25 54.46 172.25 55.09 169.02 55.09 169.02 49.27 172.12 49.27 172.12 49.9 169.76 49.9 169.76 51.74 171.99 51.74 171.99 52.36"/><path class="cls-2" d="M173.93,54.17a2.6,2.6,0,0,0,1.33.38c.76,0,1.2-.4,1.2-1s-.3-.85-1.08-1.16c-.93-.33-1.51-.83-1.51-1.65a1.66,1.66,0,0,1,1.85-1.58,2.52,2.52,0,0,1,1.27.29l-.2.61a2.33,2.33,0,0,0-1.09-.27c-.79,0-1.08.47-1.08.87s.35.81,1.14,1.12c1,.38,1.46.86,1.46,1.71s-.65,1.68-2,1.68a3,3,0,0,1-1.46-.37Z"/><path class="cls-3" d="M173.93,54.17a2.6,2.6,0,0,0,1.33.38c.76,0,1.2-.4,1.2-1s-.3-.85-1.08-1.16c-.93-.33-1.51-.83-1.51-1.65a1.66,1.66,0,0,1,1.85-1.58,2.52,2.52,0,0,1,1.27.29l-.2.61a2.33,2.33,0,0,0-1.09-.27c-.79,0-1.08.47-1.08.87s.35.81,1.14,1.12c1,.38,1.46.86,1.46,1.71s-.65,1.68-2,1.68a3,3,0,0,1-1.46-.37Z"/></svg>