<svg id="Layer_1" data-name="Layer 1" xmlns="http://www.w3.org/2000/svg" xmlns:xlink="http://www.w3.org/1999/xlink" viewBox="0 0 1920 1080"><defs><style>.cls-1{fill:none;}.cls-2{fill:#f3f4f4;}.cls-10,.cls-11,.cls-12,.cls-13,.cls-14,.cls-15,.cls-16,.cls-17,.cls-18,.cls-19,.cls-2,.cls-20,.cls-21,.cls-22,.cls-23,.cls-24,.cls-25,.cls-26,.cls-27,.cls-28,.cls-29,.cls-3,.cls-30,.cls-31,.cls-32,.cls-33,.cls-34,.cls-35,.cls-36,.cls-37,.cls-38,.cls-39,.cls-4,.cls-40,.cls-41,.cls-42,.cls-43,.cls-44,.cls-45,.cls-46,.cls-47,.cls-48,.cls-49,.cls-5,.cls-50,.cls-51,.cls-53,.cls-54,.cls-55,.cls-56,.cls-57,.cls-58,.cls-59,.cls-6,.cls-60,.cls-62,.cls-63,.cls-64,.cls-65,.cls-66,.cls-67,.cls-68,.cls-69,.cls-7,.cls-70,.cls-71,.cls-72,.cls-73,.cls-74,.cls-75,.cls-76,.cls-77,.cls-78,.cls-79,.cls-8,.cls-80,.cls-81,.cls-82,.cls-83,.cls-84,.cls-85,.cls-86,.cls-87,.cls-88,.cls-89,.cls-9{fill-rule:evenodd;}.cls-3{fill:#eaebec;}.cls-4{fill:#d9dbdb;}.cls-5{fill:#30938c;}.cls-6{fill:#1c7771;}.cls-7{fill:#96979a;}.cls-8{fill:#f04c68;}.cls-9{fill:#cb4052;}.cls-10{fill:#b6b8ba;}.cls-11{fill:#f5f6f6;}.cls-12{fill:#e7e8e9;}.cls-13{fill:#c8c9cb;}.cls-14{fill:#a6a7aa;}.cls-15{fill:#77b5d3;}.cls-16{fill:#efd19d;}.cls-17{fill:#e0c391;}.cls-18{fill:#f8e2bc;}.cls-19{fill:#d0b485;}.cls-20{fill:#efcb81;}.cls-21{fill:#14534c;}.cls-22{fill:#5f1717;}.cls-23{fill:#eeeeec;}.cls-24{fill:#e5e5e5;}.cls-25{fill:#746594;}.cls-26{fill:#fff;}.cls-27{fill:#86878a;}.cls-28{fill:#5f4d81;}.cls-29{fill:#4e3c65;}.cls-30{fill:#e4e5e5;}.cls-31{fill:#a1d064;}.cls-32{fill:#94c25c;}.cls-33{fill:#f8c666;}.cls-34{fill:#f5cd73;}.cls-35{fill:#b89b56;}.cls-36{fill:#bdb9bb;}.cls-37{fill:#f04a75;}.cls-38{fill:#de4367;}.cls-39{fill:#5f6a71;}.cls-40{fill:#ce3e58;}.cls-41{fill:#83abb3;}.cls-42{fill:#c2dce1;}.cls-43{fill:#adcad0;}.cls-44{fill:#a0bcc3;}.cls-45{fill:#686484;}.cls-46{fill:#56566b;}.cls-47{fill:#cbcaca;}.cls-48{fill:#78a14b;}.cls-49{fill:#747577;}.cls-50{fill:#d1d2d3;}.cls-51{fill:#626163;}.cls-52{clip-path:url(#clip-path);}.cls-53{fill:#414042;}.cls-54{fill:#465f3a;}.cls-55{fill:#4c486a;}.cls-56{fill:#cfdf92;}.cls-57{fill:#e6e7e8;}.cls-58{fill:#e4456b;}.cls-59{fill:#808285;}.cls-60{fill:#7d984f;}.cls-61{clip-path:url(#clip-path-2);}.cls-62{fill:#bcbec0;}.cls-63{fill:#6d6e71;}.cls-64{fill:#aa3f52;}.cls-65{fill:#2ca8be;}.cls-66{fill:#49818a;}.cls-67{fill:#a0c553;}.cls-68{fill:#363747;}.cls-69{fill:#d1d3d4;}.cls-70{fill:#71a445;}.cls-71{fill:#f05b72;}.cls-72{fill:#ef4060;}.cls-73{fill:#f19f9a;}.cls-74{fill:#ed1651;}.cls-75{fill:#aad04e;}.cls-76{fill:#90c042;}.cls-77{fill:#a7a9ac;}.cls-78{fill:#939598;}.cls-79{fill:#57a6ca;}.cls-80{fill:#6a9ba3;}.cls-81{fill:#b3d5db;}.cls-82{fill:#4b7e88;}.cls-83{fill:#38384c;}.cls-84{fill:#9abfc6;}.cls-85{fill:#8cafb6;}.cls-86{fill:#f6daa9;}.cls-87{fill:#eaeae8;}.cls-88{fill:#f3be4a;}.cls-89{fill:#a98633;}</style><clipPath id="clip-path"><rect class="cls-1" x="0.23" width="1919.77" height="1080"/></clipPath><clipPath id="clip-path-2"><rect class="cls-1" x="243" y="650" width="30.39" height="130.85"/></clipPath></defs><title>main-vector</title><rect class="cls-1" width="1920" height="1080"/><polygon class="cls-2" points="610.98 278.66 654.85 292.77 654.91 309.96 615.14 319.41 580.59 302.02 580.54 284.84 610.98 278.66"/><polygon class="cls-3" points="615.14 319.41 615.08 302.22 654.85 292.77 654.91 309.96 615.14 319.41"/><polygon class="cls-4" points="580.59 302.02 580.54 284.84 615.08 302.22 615.14 319.41 580.59 302.02"/><polygon class="cls-5" points="615.13 317.86 615.13 316.31 654.9 306.99 654.9 308.4 615.13 317.86"/><polygon class="cls-6" points="615.13 317.86 580.59 300.48 580.58 299.34 615.13 316.31 615.13 317.86"/><path class="cls-5" d="M625,308.69l-1.22-1.3-1.23-1.31a.66.66,0,0,1-.15-.66.67.67,0,0,1,.49-.46l1.74-.4,1.75-.41a.66.66,0,0,1,.64.19.64.64,0,0,1,.15.66l-.51,1.71-.53,1.72a.66.66,0,0,1-1.13.26"/><path class="cls-5" d="M622.12,307.61l1.23,1.3,1.22,1.32a.64.64,0,0,1,.16.65.69.69,0,0,1-.49.46l-1.75.4-1.75.41a.64.64,0,0,1-.64-.19.66.66,0,0,1-.15-.66l.52-1.71.52-1.72a.65.65,0,0,1,.49-.46.63.63,0,0,1,.64.2"/><path class="cls-5" d="M629.17,306l1.23,1.31,1.22,1.31a.64.64,0,0,1,.15.66.66.66,0,0,1-.49.46l-1.74.4-1.75.41a.67.67,0,0,1-.79-.85l.52-1.71.52-1.72a.64.64,0,0,1,.49-.46.66.66,0,0,1,.64.19"/><path class="cls-7" d="M635.57,306.87v-1.55l11.92-2.79V304Zm0-2.51,16-3.88v-1.41l-16,3.74Z"/><polygon class="cls-7" points="647.73 294.27 613.15 301.25 611.48 300.41 647.73 294.27"/><polygon class="cls-2" points="609.35 259.62 652.17 276.56 651.1 293.7 610.83 300.52 577.52 280.92 578.59 263.78 609.35 259.62"/><polygon class="cls-3" points="610.83 300.52 611.89 283.38 652.17 276.56 651.1 293.7 610.83 300.52"/><polygon class="cls-4" points="577.52 280.92 578.59 263.78 611.89 283.38 610.83 300.52 577.52 280.92"/><polygon class="cls-8" points="610.92 298.97 611.02 297.43 651.28 290.74 651.19 292.15 610.92 298.97"/><polygon class="cls-9" points="610.92 298.97 577.61 279.38 577.69 278.25 611.02 297.43 610.92 298.97"/><path class="cls-8" d="M621.34,290.48l-1.14-1.38-1.13-1.39a.64.64,0,0,1-.11-.66.64.64,0,0,1,.52-.43l1.76-.29L623,286a.67.67,0,0,1,.74.9l-.63,1.67-.63,1.68a.67.67,0,0,1-1.15.19"/><path class="cls-8" d="M618.56,289.21l1.14,1.38,1.13,1.39a.64.64,0,0,1,.11.66.64.64,0,0,1-.52.43l-1.76.29-1.77.29a.66.66,0,0,1-.63-.24.64.64,0,0,1-.11-.66l.63-1.67.63-1.68a.65.65,0,0,1,.52-.43.67.67,0,0,1,.63.24"/><path class="cls-8" d="M625.7,288l1.13,1.39L628,290.8a.68.68,0,0,1,.11.67.66.66,0,0,1-.52.42l-1.77.29-1.77.3a.67.67,0,0,1-.63-.24.66.66,0,0,1-.1-.66l.63-1.68.63-1.68a.65.65,0,0,1,.52-.42.66.66,0,0,1,.63.23"/><path class="cls-7" d="M632,289.36l.09-1.55,12.07-2-.09,1.41Zm.15-2.51L648.34,284l.09-1.41-16.16,2.68Z"/><path class="cls-8" d="M616.29,279.67l-16.39-8.8-12.52-6.72,2-.28,12.75,6.66,16.67,8.72-2.53.42"/><path class="cls-10" d="M620.83,278.92l-13.25-6.79-10.75-5.5,2.1-.3,10.94,5.45,13.46,6.73-2.5.41"/><path class="cls-8" d="M646.39,277.53l-24-10-17.51-7.3.94-.13,17.62,7.27,24.17,10-1.21.2"/><path class="cls-10" d="M631,277.25l-10.72-5-9.17-4.24,1.07-.15,9.24,4.21L632.2,277l-1.21.21"/><path class="cls-10" d="M633.41,276.84l-9.1-4.1q-4.15-1.89-8-3.6l1.09-.17,8.05,3.59,9.16,4.08-1.21.2"/><path class="cls-10" d="M636.3,276.37,628.65,273l-6.89-3,1.09-.16,6.94,3,7.71,3.34-1.2.2"/><path class="cls-11" d="M561.22,271.71v39.47c0,2.51-7.8,4.55-17.42,4.55s-17.41-2-17.41-4.55V271.71a8,8,0,0,1,4.23-7c4.48-2.57,1.81-4,1.81-4l11.37-1.39,11.38,1.39s-2.67,1.45,1.81,4a8,8,0,0,1,4.23,7"/><path class="cls-12" d="M561.21,271.71v39.47c0,2.51-7.79,4.55-17.41,4.55s-17.41-2-17.41-4.55v-2.42c5,1.35,15.6,3.53,23.76.61,10.63-3.81,7.49-36.83,4.59-46.48A6.73,6.73,0,0,0,557,264.7a8,8,0,0,1,4.22,7m-7.11-11.17,1.08.13a1.61,1.61,0,0,0-.79,1.16h0a4.58,4.58,0,0,1-.29-1.29"/><path class="cls-13" d="M561.22,310.53v.65c0,2.51-7.8,4.55-17.42,4.55s-17.3-2-17.4-4.5c4,1.15,22.76,6,34.82-.7"/><path class="cls-10" d="M530,265.09l.62-.39c4.48-2.56,1.81-4,1.81-4l11.37-1.38,11.38,1.38s-2.67,1.47,1.81,4c.22.13.42.26.61.39-1.38,1-7,1.67-13.8,1.67s-12.41-.71-13.8-1.67"/><path class="cls-4" d="M543.8,264.74c7.45,0,13.49-.91,13.49-2v-8.85h-27v8.85c0,1.13,6,2,13.48,2"/><path class="cls-13" d="M549.25,264.56c4.73-.31,8-1,8-1.86v-8.85h-1.76c.22,7.4-6.28,10.71-6.28,10.71"/><path class="cls-3" d="M543.8,255.88c7.45,0,13.49-.91,13.49-2s-6-2-13.49-2-13.48.92-13.48,2,6,2,13.48,2"/><path class="cls-14" d="M531.44,255.69v6.79s.67-1.66,0-6.79"/><path class="cls-14" d="M533.34,256.12v6.78s.67-1.65,0-6.78"/><path class="cls-14" d="M535.27,256.39v6.79s.67-1.66,0-6.79"/><path class="cls-14" d="M537.21,256.58v6.78s.67-1.66,0-6.78"/><path class="cls-14" d="M539.15,256.7v6.79s.67-1.66,0-6.79"/><path class="cls-14" d="M541.1,256.78v6.78s.67-1.65,0-6.78"/><path class="cls-14" d="M543.05,256.81v6.79s.67-1.66,0-6.79"/><path class="cls-14" d="M545,256.8v6.78s.67-1.65,0-6.78"/><path class="cls-14" d="M546.94,256.74v6.79s.67-1.66,0-6.79"/><path class="cls-14" d="M548.89,256.64v6.78s.67-1.66,0-6.78"/><path class="cls-14" d="M550.83,256.48v6.79s.67-1.66,0-6.79"/><path class="cls-14" d="M552.77,256.25V263s.67-1.66,0-6.78"/><path class="cls-14" d="M554.68,255.91v6.78s.67-1.66,0-6.78"/><path class="cls-15" d="M561.22,302.5v1.62c-2.08,2-9.09,3.48-17.42,3.48s-15.34-1.48-17.41-3.48V302.5c2.07,2,9.08,3.48,17.41,3.48s15.34-1.47,17.42-3.48"/><path class="cls-14" d="M529.9,287.79c3,.47,6,.86,8.92,1s5.95.14,8.93.07v2c-3,.06-6,.09-8.93-.08a85,85,0,0,1-8.92-1.06Z"/><path class="cls-14" d="M529.9,291.37c2.22.39,4.44.72,6.67.92s4.44.26,6.67.31v2c-2.23-.06-4.45-.13-6.67-.33s-4.45-.53-6.67-.93Z"/><path class="cls-15" d="M532.74,280.24l.65,1.24.66,1.24a.8.8,0,0,1,0,.82.67.67,0,0,1-.7.33L532,283.7l-1.31-.2A1,1,0,0,1,530,283a.85.85,0,0,1,0-.82l.66-1,.66-1.05a.68.68,0,0,1,.7-.31.94.94,0,0,1,.71.5m1.89,1.36a.91.91,0,0,0,.71.47.72.72,0,0,0,.7-.35l.66-1.11.66-1.12a.82.82,0,0,0,0-.83.85.85,0,0,0-.7-.46l-1.32-.11L534,278a.67.67,0,0,0-.7.33.8.8,0,0,0,0,.82l.66,1.24.65,1.23m4.71-.82L540,282l.66,1.19a.82.82,0,0,1,0,.83.76.76,0,0,1-.7.39c-.44,0-.88,0-1.32-.06l-1.32-.08a.84.84,0,0,1-.7-.46.82.82,0,0,1,0-.83l.66-1.12.66-1.12a.73.73,0,0,1,.7-.38.83.83,0,0,1,.7.45"/><path class="cls-11" d="M598.35,272.39v44.49c0,2.83-8.79,5.13-19.63,5.13s-19.63-2.3-19.63-5.13V272.39a9.05,9.05,0,0,1,4.77-7.9c5-2.89,2-4.54,2-4.54l12.82-1.56L591.54,260s-3,1.65,2,4.54a9.05,9.05,0,0,1,4.77,7.9"/><path class="cls-12" d="M598.35,272.39v44.49c0,2.84-8.79,5.13-19.63,5.13s-19.62-2.29-19.62-5.13v-2.73c5.64,1.53,17.58,4,26.78.69,12-4.29,8.44-41.52,5.17-52.39a7.68,7.68,0,0,0,2.54,2,9,9,0,0,1,4.76,7.9m-8-12.59,1.21.15a1.79,1.79,0,0,0-.88,1.31h0a5.1,5.1,0,0,1-.33-1.45"/><path class="cls-13" d="M598.35,316.16v.72c0,2.84-8.79,5.13-19.63,5.13s-19.5-2.27-19.62-5.07c4.46,1.29,25.66,6.82,39.25-.78"/><path class="cls-10" d="M563.17,264.93c.22-.15.45-.3.69-.44,5-2.89,2-4.54,2-4.54l12.82-1.56L591.54,260s-3,1.65,2.05,4.54c.24.14.47.29.69.44-1.56,1.08-7.93,1.88-15.56,1.88s-14-.8-15.55-1.88"/><path class="cls-16" d="M578.72,264.53c8.39,0,15.2-1,15.2-2.29v-10h-30.4v10c0,1.26,6.81,2.29,15.2,2.29"/><path class="cls-17" d="M584.86,264.34c5.34-.36,9.06-1.16,9.06-2.1v-10h-2c.25,8.34-7.08,12.08-7.08,12.08"/><path class="cls-18" d="M578.72,254.55c8.39,0,15.2-1,15.2-2.29s-6.81-2.3-15.2-2.3-15.2,1-15.2,2.3,6.81,2.29,15.2,2.29"/><path class="cls-19" d="M591,254.58v7.64s.76-1.86,0-7.64m-24.05.24v7.65s.75-1.87,0-7.65m2.17.3v7.65s.76-1.87,0-7.65m2.19.21V263s.75-1.87,0-7.65m2.19.15v7.64s.75-1.87,0-7.64m2.2.08v7.65s.75-1.87,0-7.65m2.19,0v7.65s.75-1.87,0-7.65m2.2,0v7.65s.75-1.87,0-7.65m2.19-.06v7.65s.76-1.87,0-7.65m2.19-.12v7.65s.76-1.87,0-7.65m2.19-.18v7.65s.76-1.87,0-7.65m2.18-.26v7.65s.76-1.87,0-7.65m-24-.62V262s.76-1.87,0-7.65"/><path class="cls-20" d="M598.35,307.1v1.82c-2.34,2.26-10.24,3.92-19.63,3.92s-17.29-1.66-19.62-3.92V307.1c2.33,2.26,10.23,3.93,19.62,3.93s17.29-1.67,19.63-3.93"/><path class="cls-14" d="M563.05,290.51a98.09,98.09,0,0,0,10.06,1.17c3.35.18,6.7.15,10.06.07V294c-3.36.08-6.71.11-10.06-.08a98.15,98.15,0,0,1-10.06-1.19Z"/><path class="cls-14" d="M563.05,294.55c2.51.44,5,.81,7.51,1s5,.3,7.52.36v2.22c-2.51-.07-5-.15-7.52-.37s-5-.6-7.51-1.06Z"/><path class="cls-20" d="M566.25,282l.74,1.4.74,1.39a.91.91,0,0,1,0,.93.76.76,0,0,1-.79.37l-1.49-.19c-.49-.08-1-.15-1.48-.24a1.08,1.08,0,0,1-.79-.59.89.89,0,0,1,0-.92c.24-.4.49-.79.74-1.18s.49-.8.74-1.19a.76.76,0,0,1,.79-.34,1.06,1.06,0,0,1,.8.56m2.14,1.52a1,1,0,0,0,.79.54.8.8,0,0,0,.79-.39c.25-.42.5-.84.74-1.26l.75-1.26a1,1,0,0,0-.8-1.45l-1.48-.12c-.5,0-1-.08-1.48-.14a.81.81,0,0,0-.8.38.91.91,0,0,0,0,.93l.74,1.39q.38.71.75,1.38m5.3-.92.75,1.35c.24.45.49.9.74,1.34a.93.93,0,0,1,0,.94.84.84,0,0,1-.8.43l-1.48-.06-1.48-.1a1,1,0,0,1-.8-.51,1,1,0,0,1,0-.94l.75-1.26c.24-.43.49-.85.74-1.27a.84.84,0,0,1,.79-.42.94.94,0,0,1,.79.5"/><polygon class="cls-14" points="598.35 293.8 598.35 310.96 600.72 312.15 599.82 294.54 598.35 293.8"/><polygon class="cls-14" points="598.35 275.41 598.35 293.18 600.26 294.3 599.48 276.07 598.35 275.41"/><polygon class="cls-21" points="600.64 310.56 598.35 309.41 598.35 308.01 600.57 309.15 600.64 310.56"/><polygon class="cls-22" points="600.19 292.66 598.35 291.57 598.35 290.14 600.13 291.16 600.19 292.66"/><polygon class="cls-3" points="389.86 275.67 439.73 270.61 449.56 275.68 396.88 281.51 389.86 275.67"/><path class="cls-23" d="M396.89,281.51l27.19-3,25.48-2.82q.19,9.7.39,19.21t.38,18.68l-24.72,4-26.35,4.23q-.58-9.81-1.17-19.82t-1.2-20.43"/><path class="cls-24" d="M425.61,278.33q3.22,9.65,6.37,19t6.11,18.19l6.16-1,6.09-1q-.19-9.26-.39-18.68t-.39-19.21L437.77,277l-12.16,1.35"/><polygon class="cls-13" points="436.82 277.09 438.09 315.53 439.58 315.29 438.62 276.89 436.82 277.09"/><path class="cls-10" d="M403.37,308.91l19.19-2.79,18.31-2.66c0,.7,0,1.39.05,2.09l-18.28,2.7-19.16,2.84c0-.73-.07-1.45-.11-2.18"/><path class="cls-10" d="M403.53,311.85l14.62-2.18,14.11-2.1c0,.71,0,1.4.07,2.1l-14.09,2.13L403.65,314l-.12-2.17"/><path class="cls-25" d="M399,318.06l26.43-4.12,24.79-3.86,0,1.17-24.77,3.89-26.41,4.15c0-.41-.05-.82-.07-1.23"/><path class="cls-25" d="M396.89,281.51c.15,2.72.31,5.42.47,8.12s.32,5.35.48,8l26.94-1.41L450,294.9c-.07-3.16-.13-6.34-.2-9.53s-.13-6.44-.2-9.69l-25.47,2.82-27.19,3"/><path class="cls-25" d="M403,302.67l11.45-1.58,11.14-1.53c.06,1.36.11,2.71.16,4.05l-11.11,1.58-11.41,1.63c-.07-1.37-.15-2.76-.23-4.15"/><path class="cls-26" d="M406.22,288.24l.95,1.46c.31.49.62,1,.94,1.45a1.19,1.19,0,0,1-.83,1.78l-1.71.21-1.73.22a1,1,0,0,1-1-.44,1.15,1.15,0,0,1-.06-1.11l.79-1.68c.26-.55.51-1.11.78-1.67a1.12,1.12,0,0,1,.89-.67.93.93,0,0,1,.94.45m2.56,1.24a.94.94,0,0,0,.93.44,1.13,1.13,0,0,0,.89-.67c.25-.55.51-1.1.77-1.66s.52-1.1.77-1.66a1.12,1.12,0,0,0-.05-1.11,1,1,0,0,0-.93-.45l-1.71.2-1.71.2a1.12,1.12,0,0,0-.89.67,1.14,1.14,0,0,0,0,1.12l.94,1.46.94,1.46m6-2.27c.31.48.61,1,.91,1.45s.6,1,.91,1.44a1.18,1.18,0,0,1-.82,1.76l-1.68.21-1.69.21a.94.94,0,0,1-.93-.43,1.15,1.15,0,0,1-.05-1.11c.25-.55.51-1.1.77-1.65s.52-1.11.77-1.66a1.13,1.13,0,0,1,.88-.67.94.94,0,0,1,.93.45"/><path class="cls-13" d="M389.86,275.67l3.4,2.83,3.62,3q.62,10.37,1.21,20.49t1.17,19.76l-3.58-4.14c-1.14-1.33-2.26-2.62-3.36-3.89q-.6-9.25-1.21-18.71t-1.25-19.35"/><path class="cls-27" d="M394.86,310.12q-.27-4.33-.54-8.71t-.55-8.85l-1.12-1.07c.18,2.94.37,5.87.55,8.77s.36,5.76.55,8.62l1.11,1.24"/><path class="cls-27" d="M396.78,312.22c-.13-2.25-.27-4.52-.41-6.79s-.28-4.58-.42-6.88c-.39-.38-.77-.77-1.16-1.14l.42,6.81c.14,2.25.28,4.5.42,6.73l1.15,1.27"/><polygon class="cls-28" points="399.04 318.06 392.09 310.2 392.17 311.38 399.11 319.29 399.04 318.06"/><path class="cls-28" d="M431.49,295.87l18.46-1c-.07-3.16-.13-6.34-.2-9.53s-.13-6.44-.2-9.69l-.17,0-.19,0h0l-.16,0H449l-.18,0h-.13l-17.87,2-.19,0h0l-.17,0-.34,0h0l-.19,0h-.07l-.4.05h-.1l-.19,0H429l-.8.09h0l-.19,0h0l-.56.06h0l-.72.08h-.07l-.32,0h-.09l-.5.06q3,8.9,5.88,17.54"/><polygon class="cls-29" points="437.43 295.56 439.09 295.47 438.62 276.89 438.09 276.95 436.82 277.09 437.43 295.56"/><polygon class="cls-26" points="399.26 321.75 397.19 281.75 449.38 275.7 397.04 281.3 389.86 275.67 396.66 281.75 399.26 321.75"/><path class="cls-29" d="M449.56,275.68l-52.37,6.07s29-1.59,52.37-6.07"/><polygon class="cls-3" points="497.92 249.95 495.19 246.05 519.71 245.29 523.83 248.99 497.92 249.95"/><polygon class="cls-13" points="495.19 246.05 495.89 294.14 498.46 299.82 497.92 249.95 495.19 246.05"/><path class="cls-3" d="M497.92,250l13-.48,13-.48q-.08,12.81-.15,25.32t-.14,24.5l-12.53.5-12.55.5q-.13-12.12-.26-24.52T497.92,250"/><path class="cls-30" d="M513.39,249.39q2,12.74,4,25.17l3.83,24.35,2.37-.09q.06-12.12.14-24.5t.15-25.32l-5.22.19-5.22.2"/><path class="cls-31" d="M498.42,295.65l12.58-.5,12.57-.5c0,.54,0,1.07,0,1.6l-12.56.5-12.57.5c0-.53,0-1.07,0-1.6"/><path class="cls-31" d="M497.92,250l13-.48,13-.48q0,6.49-.08,12.92c0,4.25,0,8.49-.07,12.69l-12.74-2.14-12.8-2.15q0-5-.11-10.11c0-3.4-.07-6.81-.11-10.25"/><path class="cls-32" d="M513.39,249.38l5.22-.2,5.22-.19q0,6.49-.08,12.92c0,4.25,0,8.49-.07,12.69l-3.41-.57-3.41-.57q-.86-5.94-1.72-11.94t-1.75-12.14"/><path class="cls-26" d="M507.35,260.83c.31.48.61,1,.91,1.44s.6,1,.91,1.45a1,1,0,0,1,0,1,1.13,1.13,0,0,1-1,.56l-1.8.07-1.8.07a1.08,1.08,0,0,1-1-.5,1,1,0,0,1,0-1l.9-1.52.89-1.51a1.16,1.16,0,0,1,1-.57,1.07,1.07,0,0,1,1,.5m2.6,1.35a1,1,0,0,0,1,.49,1.16,1.16,0,0,0,1-.56c.29-.5.6-1,.9-1.51s.59-1,.89-1.52a1,1,0,0,0,0-1.06,1,1,0,0,0-1-.49l-1.81.07-1.8.06a1.14,1.14,0,0,0-1,.57,1,1,0,0,0,0,1.06l.91,1.45.9,1.44m6.44-1.69.9,1.44c.3.49.59,1,.9,1.45a1,1,0,0,1,0,1,1.16,1.16,0,0,1-1,.57l-1.79.07-1.8.07a1.07,1.07,0,0,1-1-.5,1,1,0,0,1,0-1l.9-1.52.9-1.51a1.16,1.16,0,0,1,1-.57,1.05,1.05,0,0,1,1,.5"/><path class="cls-10" d="M500.89,288l10.09-.4,10.07-.39c0-.52,0-1,0-1.56L511,286l-10.09.39c0,.52,0,1,0,1.56"/><path class="cls-10" d="M500.92,290.56l7.75-.3,7.75-.31V288.4l-7.76.3-7.76.31c0,.52,0,1,0,1.55"/><path class="cls-10" d="M500.87,285.35,511,285l10.09-.4c0-1,0-2.1,0-3.15L511,281.8l-10.12.4,0,3.15"/><path class="cls-27" d="M496.9,288q-.07-5.31-.14-10.73t-.15-11.1l-.43-.74c.05,3.72.1,7.39.15,11s.1,7.15.15,10.67l.42.87"/><path class="cls-27" d="M497.61,289.51c0-2.74-.06-5.52-.1-8.31s-.06-5.66-.1-8.53c-.14-.27-.29-.53-.44-.79,0,2.85.07,5.67.11,8.47s.07,5.54.1,8.27c.15.29.29.6.43.89"/><polygon class="cls-32" points="498.42 295.65 495.84 290.37 495.86 291.88 498.43 297.25 498.42 295.65"/><polygon class="cls-26" points="523.83 249 498.13 250.16 498.43 297.25 497.74 250.01 495.19 246.05 498.03 249.76 523.83 249"/><polygon class="cls-3" points="527.82 278.07 474.4 272.72 483.28 268.1 534.17 272.96 527.82 278.07"/><path class="cls-24" d="M474.41,272.72l25.8,2.59,27.61,2.76q-.41,10.6-.81,21t-.78,20.39l-26.81-4-25.11-3.78q0-9.51.05-19.19t.05-19.72"/><path class="cls-23" d="M501.76,275.46q2.7,10.6,5.4,21.11t5.35,20.82l6.79,1,6.93,1q.39-10.09.78-20.39t.81-21l-13.24-1.32-12.82-1.29"/><path class="cls-33" d="M520.45,286l.81,1.71c.28.56.55,1.13.83,1.7a1.26,1.26,0,0,1,0,1.15.87.87,0,0,1-.9.46l-1.69-.2-1.67-.19a1.13,1.13,0,0,1-.89-.67,1.24,1.24,0,0,1,0-1.14l.86-1.5.86-1.52a.89.89,0,0,1,.9-.47,1.16,1.16,0,0,1,.9.67m-6,.91h0a1.13,1.13,0,0,0,.88.67.88.88,0,0,0,.9-.47l.85-1.51c.29-.5.57-1,.85-1.52a1.18,1.18,0,0,0,0-1.14,1.11,1.11,0,0,0-.89-.67l-1.67-.18-1.67-.18a.87.87,0,0,0-.89.48,1.24,1.24,0,0,0,0,1.14c.28.56.55,1.12.82,1.69s.54,1.13.81,1.69M512.07,285c.27.57.54,1.13.82,1.69s.53,1.12.81,1.69a1.19,1.19,0,0,1,0,1.13.85.85,0,0,1-.89.46l-1.65-.19-1.63-.2a1.1,1.1,0,0,1-.87-.66,1.2,1.2,0,0,1,0-1.12c.27-.5.54-1,.83-1.49s.55-1,.83-1.5a.87.87,0,0,1,.88-.48,1.13,1.13,0,0,1,.87.67"/><path class="cls-34" d="M474.33,305.91l25.2,3.61,26.93,3.86c0,.43,0,.85-.05,1.27l-26.91-3.9-25.18-3.65c0-.4,0-.79,0-1.19"/><path class="cls-13" d="M527.82,278.07l3.28-2.63,3.07-2.48q-.43,10-.85,19.78T532.49,312l-3,3.64c-1.06,1.26-2.13,2.55-3.23,3.87q.39-10.08.78-20.37t.81-21"/><path class="cls-7" d="M529.54,305.49q.18-4.49.37-9c.12-3,.24-6.07.37-9.13l-1,1c-.13,3.09-.25,6.17-.37,9.22s-.24,6.08-.36,9.1l1-1.18"/><path class="cls-7" d="M531.24,303.58c.09-2.27.19-4.54.28-6.82s.2-4.58.29-6.89l-1,1c-.1,2.33-.19,4.65-.29,7s-.19,4.6-.28,6.88c.34-.38.67-.76,1-1.13"/><polygon class="cls-35" points="532.73 306.07 526.46 313.38 526.41 314.65 532.68 307.26 532.73 306.07"/><polygon class="cls-26" points="526.23 319.46 527.55 278.32 474.41 272.72 527.72 277.83 534.17 272.96 528.03 278.28 526.23 319.46"/><path class="cls-13" d="M474.41,272.72l53.14,5.6s-37.19-2.8-53.14-5.6"/><polygon class="cls-36" points="478.77 279.7 505.11 282.91 505.05 284.65 478.76 281.35 478.77 279.7"/><path class="cls-36" d="M478.75,282.67,489.42,284l11.12,1.43c0,.56,0,1.13-.05,1.7l-11.1-1.46-10.65-1.39c0-.55,0-1.09,0-1.64"/><polygon class="cls-3" points="438.43 269.07 450.13 261.82 486.94 263.37 478.89 270.96 438.43 269.07"/><path class="cls-3" d="M438.43,269.07l20,.93,20.49,1q-.06,15.52-.12,30.6-.06,14.83-.11,29.27L459,329.18l-19.14-1.62q-.36-14.1-.72-28.62-.36-14.7-.74-29.87"/><path class="cls-30" d="M469.23,270.51l9.66.46q-.06,15.52-.12,30.6-.06,14.83-.11,29.27l-3.26-.28q-1.5-14.51-3-29.41-1.55-15.11-3.14-30.64"/><path class="cls-37" d="M438.43,269.07l20,.93,20.5,1q0,6.27-.05,12.46t0,12.24l-20.18-5-19.76-4.86c-.07-2.76-.14-5.55-.21-8.33s-.14-5.62-.21-8.45"/><path class="cls-38" d="M469.23,270.51l9.66.46q0,6.27-.05,12.46t0,12.24l-7.16-1.76q-.6-5.78-1.19-11.61t-1.21-11.79"/><path class="cls-4" d="M439.89,327.56,459,329.17l19.63,1.67v-1L459,327.77l-19.17-2c0,.62,0,1.22.05,1.83"/><path class="cls-26" d="M455.23,279.5l.84,1.59c.28.54.57,1.07.85,1.6a1.15,1.15,0,0,1,0,1.11.89.89,0,0,1-.87.49l-1.65-.09-1.65-.09a1.09,1.09,0,0,1-.88-.6,1.16,1.16,0,0,1,0-1.1l.81-1.5c.26-.5.53-1,.79-1.51a.92.92,0,0,1,.88-.5,1.09,1.09,0,0,1,.89.6m2.4,1.65a1.05,1.05,0,0,0,.89.61,1,1,0,0,0,.88-.51c.27-.5.54-1,.82-1.51l.81-1.52a1.17,1.17,0,0,0,0-1.12,1.06,1.06,0,0,0-.89-.6l-1.67-.08-1.66-.09a.92.92,0,0,0-.88.51,1.2,1.2,0,0,0,0,1.12c.29.53.57,1.06.85,1.6s.57,1.06.85,1.59m5.93-1.21.85,1.6.84,1.61a1.15,1.15,0,0,1,0,1.11.92.92,0,0,1-.88.5l-1.67-.09-1.67-.09a1.07,1.07,0,0,1-.88-.61,1.13,1.13,0,0,1,0-1.1c.26-.5.54-1,.81-1.52s.55-1,.82-1.51a.92.92,0,0,1,.88-.5,1.06,1.06,0,0,1,.9.6"/><path class="cls-7" d="M443,304.84l12.42.87,12.63.88c0-.68,0-1.37,0-2.06l-12.65-.86-12.45-.86.06,2"/><path class="cls-7" d="M443,308.21l9.53.69,9.64.69c0-.68,0-1.35,0-2l-9.67-.67L443,306.2c0,.67,0,1.34,0,2"/><path class="cls-37" d="M442.87,301.45c4.13.28,8.28.57,12.45.84l12.67.86c0-1.39,0-2.78,0-4.17l-12.7-.83-12.49-.81q0,2.07.09,4.11"/><path class="cls-37" d="M439.75,322.18,459,323.73l19.71,1.6c0,.46,0,.93,0,1.4L459,325.12l-19.19-1.58c0-.45,0-.91,0-1.36"/><path class="cls-37" d="M458.94,321.26l9.81.78,9.94.8c0,.46,0,.94,0,1.4l-9.93-.8-9.8-.79c0-.46,0-.93,0-1.39"/><path class="cls-13" d="M478.81,271l4.28-4,3.85-3.59q-.15,14.17-.29,27.85-.13,13.45-.26,26.45-1.78,3-3.67,6.18l-4.07,6.84q0-14.22.08-29,0-15.06.08-30.72"/><path class="cls-39" d="M479.65,306.13l3.21-4.47,3-4.12c0-.63,0-1.26,0-1.9l-3,4.06c-1,1.42-2.11,2.89-3.22,4.39v2"/><path class="cls-39" d="M479.63,309.53l2.5-3.58c.79-1.14,1.57-2.26,2.34-3.35,0-.64,0-1.28,0-1.91l-2.34,3.3q-1.23,1.71-2.5,3.51c0,.68,0,1.35,0,2"/><path class="cls-40" d="M479.66,302.72l3.22-4.34,3-4c0-1.28,0-2.56,0-3.84l-3,3.86-3.24,4.19c0,1.39,0,2.77,0,4.14"/><path class="cls-40" d="M486.94,263.37,483.09,267l-4.28,4q0,6.35,0,12.57t0,12.26L483,287c1.31-2.74,2.59-5.39,3.82-8q0-3.85.08-7.77c0-2.61.05-5.25.08-7.9"/><path class="cls-13" d="M482.19,277.23c.06.43.13.86.2,1.29l.21,1.28a4.36,4.36,0,0,1,0,1.08,1.62,1.62,0,0,1-.23.78l-.43.48-.43.49c-.1.11-.19,0-.24-.29a3.92,3.92,0,0,1,0-1.08c.07-.59.15-1.18.23-1.78s.15-1.17.22-1.76a1.72,1.72,0,0,1,.24-.79c.1-.1.18,0,.23.3m.6.83c0,.29.13.4.23.29a1.6,1.6,0,0,0,.22-.77c.08-.57.15-1.15.22-1.72s.15-1.14.22-1.72a4.28,4.28,0,0,0,0-1.07c-.05-.29-.13-.41-.22-.31l-.42.42-.43.43a1.8,1.8,0,0,0-.23.79,4.36,4.36,0,0,0,0,1.08l.21,1.3c.07.43.14.86.2,1.28m1.5-3.05c.06.42.13.84.19,1.26s.13.84.19,1.25a4.12,4.12,0,0,1,0,1.05,1.61,1.61,0,0,1-.21.76c-.14.15-.28.3-.41.46l-.41.46c-.1.1-.18,0-.22-.28a3.85,3.85,0,0,1,0-1.07l.21-1.72c.08-.57.15-1.14.22-1.71a1.67,1.67,0,0,1,.22-.76c.1-.1.18,0,.22.3"/><path class="cls-40" d="M486.44,312.71l-3.69,6c-1.31,2.13-2.68,4.32-4.08,6.6,0,.46,0,.92,0,1.38,1.41-2.3,2.77-4.51,4.08-6.66l3.69-6c0-.42,0-.84,0-1.26"/><path class="cls-40" d="M482.77,316.31l-2,3.16-2.1,3.33v1.38c.71-1.13,1.41-2.26,2.1-3.35s1.34-2.15,2-3.2c0-.43,0-.88,0-1.32"/><polygon class="cls-26" points="438.43 269.07 478.6 271.18 478.65 330.84 479.1 271.08 486.94 263.37 478.73 270.83 438.43 269.07"/><polygon class="cls-41" points="541.53 303.42 546.67 299.47 544.98 328.64 539.89 333.95 541.53 303.42"/><polygon class="cls-42" points="483.63 294.67 490.41 291.05 546.67 299.47 541.53 303.43 483.63 294.67"/><path class="cls-43" d="M483.63,294.67l27.62,4.17,30.28,4.58q-.42,7.8-.83,15.45T539.89,334l-29.54-5.84-27-5.34q.06-6.9.13-13.9t.14-14.2"/><path class="cls-44" d="M512.83,299.08q2.29,7.89,4.6,15.73t4.58,15.6l8.81,1.75,9.06,1.79c.26-5,.54-10,.81-15.08s.55-10.25.83-15.45l-14.67-2.21-14-2.13"/><path class="cls-45" d="M487.21,309l17.94,3.13,19.05,3.31c0,.73-.07,1.46-.1,2.2l-19-3.37-17.91-3.18c0-.7,0-1.39,0-2.09"/><path class="cls-45" d="M487.17,312.11l13.49,2.42,14.12,2.52c0,.72,0,1.44-.08,2.16l-14.09-2.57-13.46-2.46c0-.69,0-1.38,0-2.07"/><path class="cls-26" d="M496.89,303.22c.22.47.43.94.66,1.41s.43.93.65,1.4a1,1,0,0,1,0,.92.7.7,0,0,1-.74.34l-1.35-.23-1.35-.22a1,1,0,0,1-.71-.58,1,1,0,0,1,0-.92c.22-.39.46-.78.69-1.17l.7-1.19a.69.69,0,0,1,.74-.34,1,1,0,0,1,.71.58m-4.84.48h0a1,1,0,0,0,.7.58.67.67,0,0,0,.72-.34c.24-.39.47-.79.7-1.18l.7-1.19a1,1,0,0,0,0-.92,1,1,0,0,0-.71-.58l-1.35-.21-1.34-.21a.67.67,0,0,0-.72.35,1,1,0,0,0,0,.91l.65,1.4c.22.46.43.93.65,1.39m-1.9-1.57c.21.46.42.92.65,1.39s.42.93.64,1.39a1,1,0,0,1,0,.91.65.65,0,0,1-.71.34l-1.32-.23-1.33-.22a1,1,0,0,1-.7-.57,1,1,0,0,1,0-.9c.22-.39.44-.78.67-1.17l.68-1.17a.67.67,0,0,1,.72-.34.93.93,0,0,1,.7.57"/><path class="cls-45" d="M483.37,321.75l27,5.31L540,332.85l-.06,1.1-29.54-5.84-27-5.34c0-.34,0-.67,0-1"/><path class="cls-26" d="M487.1,317.59l9.7,1.83,10,1.88,0,.89-10-1.9-9.69-1.83c0-.29,0-.58,0-.87"/><path class="cls-26" d="M487.08,319l8.34,1.58,8.56,1.63c0,.3,0,.59,0,.89l-8.56-1.64-8.33-1.6c0-.29,0-.57,0-.86"/><path class="cls-26" d="M537.64,309.23,529.87,308l-7.58-1.22c0,.31,0,.62,0,.93l7.58,1.23,7.76,1.26c0-.32,0-.64,0-.95"/><path class="cls-26" d="M537.56,310.79l-13.26-2.17c0,.31,0,.62,0,.93l13.25,2.19c0-.32,0-.63,0-.95"/><path class="cls-3" d="M543.42,325.38q.17-2.88.32-5.78l.33-5.84-.48.4q-.17,3-.33,5.87l-.33,5.81.49-.46m-.79.75-.5.47c.1-1.68.19-3.36.28-5s.19-3.39.28-5.09l.5-.42c-.1,1.69-.19,3.38-.28,5.06s-.19,3.35-.28,5"/><polygon class="cls-46" points="539.91 332.85 545.01 327.57 544.98 328.64 539.88 333.95 539.91 332.85"/><polygon class="cls-26" points="483.63 294.67 541.22 303.76 539.88 333.95 541.72 303.6 546.67 299.47 541.38 303.16 483.63 294.67"/><path class="cls-38" d="M438.43,269.07l40.16,2.11a385.1,385.1,0,0,1-40.16-2.11"/><path class="cls-44" d="M483.63,294.67l57.59,9.09s-40-5.28-57.59-9.09"/><path class="cls-32" d="M523.83,249l-25.7,1.17s16.55.16,25.7-1.17"/><polygon class="cls-47" points="486.65 292.14 490.42 290.36 527.29 295.05 527.23 296.56 490.41 291.05 486.64 293.06 486.65 292.14"/><polygon class="cls-48" points="498.25 268.72 523.71 270.07 523.7 271.96 498.25 269.53 498.25 268.72"/><rect class="cls-1" width="1920" height="1080"/><path class="cls-49" d="M778.81,313.5l23.29,19.95a8.94,8.94,0,0,0,6.85,2.18l86.29-7.93a2.77,2.77,0,0,0,1.24-5.09l-29.67-19a8.9,8.9,0,0,0-5.9-1.42l-81.08,8.1a1.81,1.81,0,0,0-1.58,1.28,1.84,1.84,0,0,0,.56,2"/><path class="cls-4" d="M931.59,122.23l-1.12-.91c-1-.83-5.54-.89-6.59-.82l-159,10.42a7.31,7.31,0,0,0-7.17,6.61L734.2,282.72c-.38,2.3,1.93,8.1,4.35,9.6l2.37,1.47L764.51,140.4a5.81,5.81,0,0,1,5.75-5.29Z"/><path class="cls-14" d="M757.92,136.51a8.39,8.39,0,0,0-.22,1L734.2,282.72c-.38,2.3,1.93,8.09,4.35,9.6l1.37.84,24.56-152.58Z"/><path class="cls-50" d="M929.08,121,766.77,131.69a6,6,0,0,0-5.86,5.41l-24.2,149.54a6.68,6.68,0,0,0,1.93,5.37,6.35,6.35,0,0,0,5.08,2.37l157.65-15.15a6,6,0,0,0,5.62-5.31l25.53-149a3.31,3.31,0,0,0-.93-2.67,3.2,3.2,0,0,0-2.51-1.22"/><path class="cls-4" d="M929.08,121l-144,9.49,132.08,83.87,15.33-89.47a3.31,3.31,0,0,0-.93-2.67,3.2,3.2,0,0,0-2.51-1.22"/><path class="cls-3" d="M736.57,287.52s20.75-90.89,23.65-146.14Z"/><path class="cls-10" d="M746.13,294.14C791,285.21,848.48,280,901.37,279.23Z"/><polygon class="cls-10" points="852.59 208.07 859.81 283.22 811.93 287.82 836.38 208.83 852.59 208.07"/><path class="cls-51" d="M809,335.63l86.29-7.93s-51.46,1.61-86.29,7.93"/><path class="cls-51" d="M779.83,310.26l81.08-8.1s-40.18,6.3-81.08,8.1"/><path class="cls-51" d="M778.81,313.5l23.29,19.95s-12-15.17-23.29-19.95"/><path class="cls-51" d="M866.81,303.58l29.67,19s-20.63-9.74-29.67-19"/><polygon class="cls-10" points="836.38 208.83 828.09 320.67 849.59 318.77 852.59 208.07 836.38 208.83"/><polygon class="cls-27" points="817.04 316.47 828.09 320.67 836.38 208.83 817.04 316.47"/><polygon class="cls-7" points="849.59 318.77 852 313.55 852.59 208.07 849.59 318.77"/><rect class="cls-1" width="1920" height="1080"/><g class="cls-52"><polygon class="cls-53" points="-42.7 1139.18 330.02 827.45 330.02 747.93 -42.7 1017.53 -42.7 1139.18"/><path class="cls-54" d="M16.25,832.41q-35.59,25.94-74,53.88c-.13,11.81-.25,23.65-.38,35.42s-.25,23.54-.38,35.25q38.22-29.79,73.72-57.42.22-16.69.5-33.48c.17-11.18.32-22.42.51-33.65"/><path class="cls-55" d="M10.75,868.61l-48,36.16c0,1.75,0,3.45-.06,5.18q24.6-18.68,48-36.37c0-1.65.05-3.31.07-5"/><path class="cls-26" d="M-1.58,860.49c-.29,1.24-.61,2.47-.95,3.71s-.6,2.49-.92,3.72a4.31,4.31,0,0,0,0,2.17c.17.55.52.68,1,.37s1.14-.88,1.75-1.32L1,867.81A3.19,3.19,0,0,0,2,866a4.28,4.28,0,0,0,0-2.16c-.25-.79-.54-1.57-.83-2.37s-.58-1.58-.86-2.38c-.21-.53-.53-.68-.93-.39a3.38,3.38,0,0,0-1,1.79m6.29-1.7h0a3.21,3.21,0,0,1-1,1.77c-.39.3-.75.17-.92-.37-.26-.81-.58-1.58-.86-2.38s-.52-1.61-.84-2.38a4.18,4.18,0,0,1,.06-2.18,3.24,3.24,0,0,1,.92-1.77l1.81-1.32,1.72-1.27c.39-.3.75-.15.92.38a3.78,3.78,0,0,1,0,2.16c-.28,1.21-.6,2.44-.91,3.68s-.61,2.45-.92,3.68m2.58-4.86c-.29,1.23-.61,2.45-.92,3.68s-.6,2.47-.92,3.69a3.78,3.78,0,0,0,0,2.16c.18.54.5.67.89.4l1.75-1.32c.64-.46,1.21-.89,1.78-1.32a3.37,3.37,0,0,0,.92-1.76,3.74,3.74,0,0,0,0-2.15c-.25-.79-.54-1.57-.83-2.36s-.52-1.6-.8-2.4c-.21-.52-.53-.67-.93-.37a3,3,0,0,0-.94,1.75"/><path class="cls-55" d="M10.65,876q-17.73,13.47-36.17,27.44c0,1.69,0,3.38-.07,5.09Q-7.14,894.45,10.58,881c0-1.65.05-3.3.07-5"/><path class="cls-55" d="M15.27,897.09q-35.46,27.57-73.72,57.28c0,.88,0,1.73,0,2.59q38.22-29.79,73.72-57.42l0-2.45"/><path class="cls-26" d="M10.47,889.18l-26,20c0,1.88,0,3.73-.07,5.59l26-20.1c0-1.82,0-3.64.08-5.48"/><polygon class="cls-56" points="16.25 832.41 -7.63 828.91 -81.61 882.79 -57.72 886.29 16.25 832.41"/><path class="cls-54" d="M8.42,760.89q-35.73,24.24-74.19,50.37-.2,17.93-.38,35.72c-.13,11.87-.29,23.7-.41,35.53l74-54q.24-16.85.51-33.74c.17-11.27.32-22.57.51-33.89"/><path class="cls-55" d="M2.91,797.07C-12.78,808.1-28.8,819.4-45.31,831q0,2.61-.06,5.19c16.5-11.66,32.52-23,48.21-34.11,0-1.67.05-3.33.07-5"/><path class="cls-26" d="M-9.46,788.25c-.32,1.22-.63,2.45-.95,3.7s-.63,2.46-.95,3.69a4.35,4.35,0,0,0,0,2.18c.2.55.52.7,1,.41L-8.68,797c.64-.44,1.21-.85,1.82-1.26a3.22,3.22,0,0,0,1-1.76,4.4,4.4,0,0,0,0-2.16c-.26-.82-.58-1.62-.87-2.45s-.55-1.62-.86-2.44c-.18-.53-.53-.7-.9-.44a3,3,0,0,0-1,1.76m6.28-1.39h0a3,3,0,0,1-.92,1.74c-.42.28-.75.14-1-.43-.26-.82-.55-1.62-.87-2.43s-.52-1.67-.81-2.46a3.89,3.89,0,0,1,0-2.19,3,3,0,0,1,1-1.74c.6-.43,1.21-.83,1.78-1.23s1.15-.79,1.76-1.19c.39-.28.72-.11.92.42a3.92,3.92,0,0,1,0,2.2c-.29,1.2-.6,2.42-.92,3.65s-.6,2.44-1,3.66m2.61-4.76c-.28,1.22-.6,2.44-.95,3.66s-.6,2.46-.91,3.68a3.62,3.62,0,0,0,0,2.16c.2.55.52.7.89.44.63-.43,1.21-.83,1.78-1.24L2,789.57a3,3,0,0,0,1-1.72,3.75,3.75,0,0,0,0-2.15c-.26-.81-.55-1.61-.84-2.44s-.51-1.63-.8-2.45c-.2-.55-.53-.72-.95-.43a2.85,2.85,0,0,0-.93,1.72"/><path class="cls-55" d="M2.81,804.53l-36.3,25.74c0,1.7,0,3.41-.06,5.14q18.48-13.21,36.29-25.88c0-1.67,0-3.33.07-5"/><path class="cls-55" d="M7.44,826l-74,53.88c0,.86,0,1.73,0,2.6l74-54c0-.83,0-1.66,0-2.49"/><path class="cls-26" d="M2.62,817.79q-12.87,9.27-26.13,18.79c0,1.89,0,3.76-.07,5.64q13.23-9.6,26.09-18.9c0-1.84.08-3.68.11-5.53"/><polygon class="cls-56" points="8.42 760.89 -15.46 757.81 -89.66 808.18 -65.77 811.26 8.42 760.89"/><path class="cls-57" d="M247.07,666.54l-40.8,27.1q-.75,35.57-1.46,70.9t-1.43,70.29q20.77-16.22,40.59-31.62.78-33.91,1.56-68.05t1.54-68.62"/><path class="cls-58" d="M247.07,666.54l-40.8,27.1q-.36,17.79-.73,35.52c-.23,11.8-.49,23.62-.73,35.38q20.85-15.07,40.72-29.38c.25-11.39.52-22.83.78-34.23s.51-22.91.76-34.39"/><path class="cls-58" d="M244.25,790.22q-19.83,15.24-40.61,31.19c0,1.15,0,2.29-.07,3.41q20.79-16,40.61-31.29c0-1.09,0-2.21.07-3.31"/><path class="cls-26" d="M236.69,696.67c-.33,1.37-.63,2.76-.95,4.16s-.69,2.78-1,4.16a5.28,5.28,0,0,0-.05,2.52c.19.66.54.87.94.59.63-.45,1.24-.85,1.82-1.27l1.81-1.23a3.36,3.36,0,0,0,1-1.94,5.62,5.62,0,0,0,.06-2.5c-.28-1-.55-1.93-.83-2.93s-.56-1.92-.83-2.88c-.2-.67-.51-.89-.92-.61a3.31,3.31,0,0,0-1,1.93M234,702a3.36,3.36,0,0,1-1,1.93c-.41.29-.74.07-.91-.59-.27-1-.56-2-.87-2.93s-.57-2-.83-2.93a5.59,5.59,0,0,1,.05-2.53,3.38,3.38,0,0,1,1-2l1.82-1.23c.63-.43,1.24-.83,1.84-1.25.4-.27.72,0,.91.63a4.92,4.92,0,0,1-.05,2.52c-.34,1.38-.66,2.76-1,4.16s-.65,2.78-1,4.18m-6.46,1c-.33,1.39-.68,2.79-1,4.19s-.67,2.81-1,4.22a5.23,5.23,0,0,0-.05,2.54c.2.66.56.86,1,.57l1.85-1.27c.61-.44,1.21-.86,1.82-1.28a3.32,3.32,0,0,0,1-1.92,4.75,4.75,0,0,0,.05-2.53c-.28-1-.55-1.94-.83-2.93s-.53-2-.8-2.93c-.2-.67-.55-.89-1-.6a3.27,3.27,0,0,0-1,1.94"/><path class="cls-59" d="M238.91,770.36l-28.45,21.26c0-1.63.07-3.27.1-4.9L239,765.57c0,1.61-.07,3.22-.1,4.79"/><path class="cls-59" d="M238.7,778.33q-10.71,8.08-21.77,16.4c0-1.62.07-3.22.1-4.83,7.39-5.51,14.63-11,21.78-16.34,0,1.6-.07,3.18-.11,4.77"/><path class="cls-58" d="M239.08,762.38q-14,10.35-28.45,21.07c.06-3.27.16-6.55.22-9.82Q225.3,763,239.29,752.77l-.21,9.61"/><path class="cls-26" d="M239.82,729.79l-28.5,20.33c.07-3.29.17-6.59.23-9.88L240,720.15l-.21,9.64"/><path class="cls-54" d="M45.11,836.63q-35.59,25.93-74,53.88c-.12,11.82-.25,23.65-.38,35.43s-.25,23.54-.37,35.24Q8.59,931.41,44.1,903.76q.24-16.69.5-33.48c.18-11.18.33-22.41.51-33.65"/><path class="cls-55" d="M39.62,872.83-8.42,909c0,1.74,0,3.44-.06,5.17q24.6-18.67,48-36.36c0-1.65,0-3.31.07-5"/><path class="cls-26" d="M27.28,864.72c-.29,1.23-.6,2.46-1,3.71s-.6,2.48-.91,3.71a4.44,4.44,0,0,0,0,2.17c.17.55.53.68.95.37.57-.44,1.15-.87,1.75-1.31s1.21-.9,1.78-1.34a3.25,3.25,0,0,0,1-1.8,4.44,4.44,0,0,0,0-2.17c-.26-.79-.55-1.57-.84-2.37s-.57-1.58-.86-2.38c-.2-.53-.53-.67-.92-.39a3.44,3.44,0,0,0-1,1.8m6.29-1.7h0a3.17,3.17,0,0,1-.94,1.76c-.4.3-.75.17-.93-.37-.25-.81-.57-1.57-.86-2.37s-.52-1.62-.84-2.39a4.2,4.2,0,0,1,.07-2.18A3.12,3.12,0,0,1,31,855.7c.63-.46,1.2-.89,1.81-1.31l1.71-1.27c.4-.3.75-.15.93.37a3.78,3.78,0,0,1,0,2.16c-.29,1.21-.6,2.45-.92,3.68s-.6,2.45-.92,3.69m2.58-4.86c-.29,1.22-.6,2.44-.92,3.68s-.6,2.46-.91,3.68a3.78,3.78,0,0,0,0,2.16c.17.55.5.68.89.4l1.75-1.32,1.78-1.32a3.37,3.37,0,0,0,.92-1.76,3.75,3.75,0,0,0,0-2.15c-.26-.79-.55-1.56-.84-2.36s-.51-1.59-.8-2.39c-.2-.53-.53-.68-.92-.38a3,3,0,0,0-1,1.76"/><path class="cls-55" d="M39.51,880.22Q21.8,893.71,3.34,907.66c0,1.69,0,3.38-.06,5.09l36.17-27.57c0-1.65,0-3.29.06-5"/><path class="cls-55" d="M44.14,901.31l-73.72,57.28c0,.88,0,1.73,0,2.59Q8.59,931.41,44.1,903.76c0-.81,0-1.64,0-2.45"/><path class="cls-26" d="M39.33,893.4l-26,20c0,1.87-.05,3.73-.07,5.58l26-20.1c0-1.82.06-3.64.08-5.48"/><polygon class="cls-56" points="45.12 836.63 21.23 833.14 -52.74 887.02 -28.86 890.51 45.12 836.63"/><path class="cls-54" d="M37.29,765.11q-35.74,24.24-74.2,50.38-.18,17.91-.38,35.71c-.12,11.87-.28,23.71-.41,35.54q38.36-28,74-54,.26-16.85.51-33.74c.18-11.26.33-22.57.52-33.89"/><path class="cls-55" d="M31.78,801.3c-15.7,11-31.72,22.32-48.23,33.94,0,1.73,0,3.46-.05,5.18C0,828.76,16,817.41,31.7,806.31c0-1.66.05-3.33.08-5"/><path class="cls-26" d="M19.4,792.47c-.31,1.22-.63,2.46-.94,3.71s-.64,2.45-.95,3.68a4.48,4.48,0,0,0,0,2.18c.2.55.53.7.95.41l1.76-1.23L22,800a3.19,3.19,0,0,0,1-1.75A4.42,4.42,0,0,0,23,796c-.26-.82-.57-1.61-.86-2.45s-.55-1.62-.87-2.43c-.17-.54-.53-.7-.89-.44a2.9,2.9,0,0,0-1,1.75m6.29-1.38h0a2.94,2.94,0,0,1-.93,1.73c-.42.29-.75.14-1-.43-.26-.82-.55-1.62-.86-2.43s-.52-1.66-.81-2.46a3.88,3.88,0,0,1,0-2.19,3.11,3.11,0,0,1,.95-1.74l1.79-1.23,1.75-1.19c.39-.28.72-.11.92.43a3.72,3.72,0,0,1,0,2.19c-.28,1.2-.6,2.42-.91,3.66s-.61,2.44-.95,3.66m2.61-4.76c-.29,1.21-.6,2.43-.95,3.66s-.6,2.45-.92,3.67a3.78,3.78,0,0,0,0,2.16c.2.56.53.7.89.44L29.08,795l1.75-1.24a3,3,0,0,0,1-1.71,3.58,3.58,0,0,0,0-2.15c-.25-.82-.54-1.62-.83-2.44s-.52-1.64-.8-2.45c-.21-.56-.54-.72-1-.44a2.9,2.9,0,0,0-.92,1.73"/><path class="cls-55" d="M31.67,808.76q-17.82,12.62-36.3,25.73c0,1.71,0,3.41-.06,5.14q18.5-13.21,36.29-25.88c0-1.66,0-3.33.07-5"/><path class="cls-55" d="M36.3,830.25l-74,53.88,0,2.61q38.36-28,74-54c0-.83,0-1.65,0-2.49"/><path class="cls-26" d="M31.48,822Q18.63,831.3,5.36,840.8c0,1.89-.05,3.77-.07,5.64q13.22-9.6,26.09-18.9c0-1.84.08-3.68.1-5.53"/><polygon class="cls-56" points="37.29 765.11 13.4 762.03 -60.79 812.41 -36.91 815.49 37.29 765.11"/><path class="cls-54" d="M74.37,840.91q-35.6,25.94-74,53.88C.28,906.61.15,918.44,0,930.22s-.25,23.54-.38,35.24Q37.86,935.69,73.36,908q.24-16.69.5-33.47c.18-11.19.32-22.42.51-33.66"/><path class="cls-55" d="M68.88,877.11l-48,36.17c0,1.74,0,3.44-.06,5.17q24.6-18.68,48-36.36c0-1.65,0-3.32.07-5"/><path class="cls-26" d="M56.54,869c-.29,1.24-.6,2.46-.95,3.71s-.6,2.48-.91,3.71a4.44,4.44,0,0,0,0,2.17c.17.55.53.68,1,.37s1.14-.87,1.75-1.31,1.2-.9,1.78-1.34a3.25,3.25,0,0,0,1-1.8,4.44,4.44,0,0,0,0-2.17c-.26-.79-.55-1.57-.84-2.37s-.57-1.58-.86-2.38c-.2-.52-.53-.67-.92-.39a3.44,3.44,0,0,0-1,1.8m6.29-1.7h0a3.12,3.12,0,0,1-.95,1.76c-.39.3-.74.18-.92-.37-.26-.81-.57-1.57-.86-2.37s-.52-1.62-.84-2.39a4.18,4.18,0,0,1,.06-2.18,3.28,3.28,0,0,1,.92-1.77c.64-.45,1.21-.89,1.82-1.31l1.71-1.27c.4-.3.75-.15.93.37a3.78,3.78,0,0,1,0,2.16c-.29,1.21-.61,2.45-.92,3.68s-.6,2.45-.92,3.69m2.58-4.86c-.29,1.22-.6,2.44-.92,3.68s-.6,2.46-.91,3.68a3.69,3.69,0,0,0,0,2.16c.17.54.49.68.89.4L66.19,871c.63-.45,1.2-.89,1.78-1.32a3.33,3.33,0,0,0,.92-1.75,3.78,3.78,0,0,0,0-2.16c-.26-.78-.55-1.56-.84-2.36s-.51-1.59-.8-2.39c-.2-.53-.53-.68-.92-.38a3,3,0,0,0-1,1.76"/><path class="cls-54" d="M4.68,906.05c6.46-4.77,12.92-9.53,19.19-14.18l-.06,5.06L4.63,911.21c0-1.73,0-3.43,0-5.16"/><path class="cls-55" d="M68.77,884.5Q51.06,898,32.6,911.94c0,1.69,0,3.38-.06,5.09L68.7,889.46c0-1.65,0-3.3.07-5"/><path class="cls-55" d="M73.39,905.59-.33,962.88l0,2.58Q37.86,935.69,73.36,908l0-2.45"/><path class="cls-26" d="M68.59,897.68l-26,20c0,1.87-.05,3.73-.07,5.58l26-20.1c0-1.82,0-3.64.08-5.48"/><polygon class="cls-56" points="74.38 840.91 50.49 837.42 -23.48 891.3 0.4 894.79 74.38 840.91"/><path class="cls-60" d="M.4,894.79l-11.93-1.74-12-1.75q-.19,17.67-.38,35.34T-24.24,962l12,1.75,11.94,1.75q.18-17.65.37-35.32T.4,894.79"/><path class="cls-54" d="M66.55,769.39q-35.74,24.24-74.2,50.38-.2,17.91-.38,35.71c-.12,11.87-.28,23.71-.41,35.54q38.36-28,74-54,.24-16.85.51-33.74c.18-11.26.33-22.57.52-33.89"/><path class="cls-55" d="M61,805.58c-15.69,11-31.71,22.32-48.22,33.94,0,1.74,0,3.46-.06,5.18Q37.5,827.22,61,810.59c0-1.66,0-3.33.07-5"/><path class="cls-26" d="M48.66,796.75c-.31,1.23-.63,2.46-.95,3.71s-.63,2.45-.94,3.69a4.32,4.32,0,0,0,0,2.17c.2.56.53.7.95.41l1.75-1.23,1.82-1.25a3.26,3.26,0,0,0,1-1.76,4.44,4.44,0,0,0,0-2.17c-.26-.82-.58-1.61-.87-2.45s-.54-1.62-.86-2.43c-.17-.54-.53-.7-.89-.44a2.88,2.88,0,0,0-1,1.75m6.28-1.38h0A2.94,2.94,0,0,1,54,797.1c-.42.29-.75.14-1-.43-.26-.82-.55-1.62-.87-2.43s-.51-1.66-.8-2.46a3.8,3.8,0,0,1,0-2.19,3.07,3.07,0,0,1,1-1.74l1.79-1.23,1.75-1.19c.39-.27.72-.11.92.43a3.8,3.8,0,0,1,0,2.19c-.28,1.2-.6,2.42-.91,3.66s-.61,2.44-1,3.66m2.62-4.76c-.29,1.21-.61,2.43-1,3.65s-.61,2.46-.92,3.68a3.78,3.78,0,0,0,0,2.16c.2.56.53.7.89.44l1.79-1.23,1.75-1.24a3,3,0,0,0,.95-1.71,3.74,3.74,0,0,0,0-2.15c-.26-.82-.55-1.62-.83-2.44s-.52-1.64-.81-2.45c-.2-.56-.53-.72-1-.44a2.9,2.9,0,0,0-.92,1.73"/><path class="cls-54" d="M-3.39,831.36c6.51-4.47,13-8.93,19.28-13.29,0,1.7-.05,3.42-.06,5.12L-3.44,836.57c0-1.74,0-3.46,0-5.21"/><path class="cls-55" d="M60.93,813q-17.82,12.62-36.3,25.73l-.06,5.14Q43.07,830.7,60.86,818c0-1.66,0-3.33.07-5"/><path class="cls-55" d="M65.56,834.53q-35.6,26-74,53.89c0,.85,0,1.73,0,2.6q38.36-28,74-54c0-.82,0-1.66,0-2.49"/><path class="cls-26" d="M60.74,826.29q-12.87,9.29-26.12,18.79c0,1.89,0,3.77-.08,5.64q13.23-9.6,26.1-18.9c0-1.84.08-3.67.1-5.53"/><polygon class="cls-56" points="66.55 769.39 42.66 766.31 -31.53 816.69 -7.65 819.77 66.55 769.39"/></g><path class="cls-57" d="M247.07,666.54l-40.8,27.1q-.75,35.57-1.46,70.9t-1.43,70.29q20.77-16.22,40.59-31.62.78-33.91,1.56-68.05t1.54-68.62"/><path class="cls-58" d="M247.07,666.54l-40.8,27.1q-.36,17.79-.73,35.52c-.23,11.8-.49,23.62-.73,35.38q20.85-15.07,40.72-29.38c.25-11.39.52-22.83.78-34.23s.51-22.91.76-34.39"/><path class="cls-58" d="M244.25,790.22q-19.83,15.24-40.61,31.19c0,1.15,0,2.29-.07,3.41q20.79-16,40.61-31.29c0-1.09,0-2.21.07-3.31"/><path class="cls-26" d="M236.69,696.67c-.33,1.37-.63,2.76-.95,4.16s-.69,2.78-1,4.16a5.28,5.28,0,0,0-.05,2.52c.19.66.54.87.94.59.63-.45,1.24-.85,1.82-1.27l1.81-1.23a3.36,3.36,0,0,0,1-1.94,5.62,5.62,0,0,0,.06-2.5c-.28-1-.55-1.93-.83-2.93s-.56-1.92-.83-2.88c-.2-.67-.51-.89-.92-.61a3.31,3.31,0,0,0-1,1.93M234,702a3.36,3.36,0,0,1-1,1.93c-.41.29-.74.07-.91-.59-.27-1-.56-2-.87-2.93s-.57-2-.83-2.93a5.59,5.59,0,0,1,.05-2.53,3.38,3.38,0,0,1,1-2l1.82-1.23c.63-.43,1.24-.83,1.84-1.25.4-.27.72,0,.91.63a4.92,4.92,0,0,1-.05,2.52c-.34,1.38-.66,2.76-1,4.16s-.65,2.78-1,4.18m-6.46,1c-.33,1.39-.68,2.79-1,4.19s-.67,2.81-1,4.22a5.23,5.23,0,0,0-.05,2.54c.2.66.56.86,1,.57l1.85-1.27c.61-.44,1.21-.86,1.82-1.28a3.32,3.32,0,0,0,1-1.92,4.75,4.75,0,0,0,.05-2.53c-.28-1-.55-1.94-.83-2.93s-.53-2-.8-2.93c-.2-.67-.55-.89-1-.6a3.27,3.27,0,0,0-1,1.94"/><path class="cls-59" d="M238.91,770.36l-28.45,21.26c0-1.63.07-3.27.1-4.9L239,765.57c0,1.61-.07,3.22-.1,4.79"/><path class="cls-59" d="M238.7,778.33q-10.71,8.08-21.77,16.4c0-1.62.07-3.22.1-4.83,7.39-5.51,14.63-11,21.78-16.34,0,1.6-.07,3.18-.11,4.77"/><path class="cls-58" d="M239.08,762.38q-14,10.35-28.45,21.07c.06-3.27.16-6.55.22-9.82Q225.3,763,239.29,752.77l-.21,9.61"/><path class="cls-26" d="M239.82,729.79l-28.5,20.33c.07-3.29.17-6.59.23-9.88L240,720.15l-.21,9.64"/><path class="cls-62" d="M176.56,690.06l14.86,1.79,14.84,1.79q-.7,35.33-1.44,70.62t-1.44,70.57L188.53,833l-14.86-1.79q.72-35.26,1.44-70.57t1.45-70.61"/><path class="cls-63" d="M200,774.86l-10.93-1.32-10.95-1.32c0-1.38.06-2.78.09-4.18l10.94,1.32,10.93,1.32c0,1.4-.05,2.79-.08,4.18"/><path class="cls-63" d="M199.86,781.83l-8.42-1-8.43-1c0-1.38.06-2.78.09-4.18l8.43,1,8.41,1c0,1.4-.05,2.8-.08,4.18"/><path class="cls-64" d="M200.14,767.87l-10.93-1.32-10.94-1.32c0-2.79.11-5.61.17-8.41l10.94,1.32c3.65.43,7.29.88,10.94,1.32l-.18,8.41"/><path class="cls-63" d="M199.42,803.31,188.48,802l-10.94-1.32c0-1.38.06-2.78.09-4.18l10.94,1.32,10.93,1.32c0,1.39-.05,2.79-.08,4.18"/><path class="cls-63" d="M199.28,810.29l-8.42-1-8.43-1c0-1.38.06-2.78.09-4.18l8.42,1,8.42,1c0,1.4-.06,2.8-.08,4.18"/><path class="cls-63" d="M199.56,796.33,188.63,795l-10.94-1.32c0-1.39.05-2.79.08-4.2l10.94,1.32,10.94,1.31c0,1.42-.06,2.81-.09,4.21"/><path class="cls-63" d="M201.12,720.61l-10.94-1.31L179.24,718c0-1.38,0-2.78.08-4.17l10.94,1.32,10.94,1.32c0,1.39-.06,2.79-.08,4.17"/><path class="cls-63" d="M201,727.59l-8.42-1-8.43-1,.09-4.17,8.42,1,8.43,1c0,1.4-.06,2.8-.09,4.18"/><path class="cls-64" d="M201.26,713.63l-10.94-1.32L179.38,711c.06-2.8.11-5.59.17-8.4l10.94,1.32q5.47.65,10.94,1.32-.09,4.2-.17,8.4"/><polygon class="cls-57" points="247.07 666.54 217.36 662.95 176.56 690.05 206.26 693.64 247.07 666.54"/><path class="cls-57" d="M201,697.14q-21.54,14.34-44.13,29.33-.68,36.93-1.3,73.63t-1.3,73q22.45-17.52,43.88-34.18.68-35.16,1.42-70.57t1.43-71.2"/><path class="cls-58" d="M201,697.14q-21.54,14.34-44.13,29.33-.31,18.48-.66,36.9c-.2,12.25-.44,24.52-.64,36.73l44-31.76c.23-11.81.47-23.68.71-35.53s.49-23.76.72-35.67"/><path class="cls-58" d="M198.39,825.44,154.5,859.15l-.06,3.57q22.5-17.36,43.89-33.86c0-1.12,0-2.27.06-3.42"/><path class="cls-26" d="M189.84,728.7c-.34,1.45-.68,2.89-1,4.34s-.67,2.91-1,4.35a5,5,0,0,0-.05,2.61c.21.68.55.91,1,.59.67-.46,1.34-.92,2-1.37s1.3-.91,1.94-1.34a3.66,3.66,0,0,0,1.08-2,5.31,5.31,0,0,0,0-2.59c-.28-1-.59-2-.9-3s-.6-2-.9-3c-.2-.68-.56-.89-1-.59a3.5,3.5,0,0,0-1.12,2M187,734.27a3.53,3.53,0,0,1-1.08,2c-.44.32-.83.09-1-.58-.3-1-.59-2-.9-3s-.58-2-.9-3a5.16,5.16,0,0,1,.05-2.61,3.57,3.57,0,0,1,1-2l2-1.35,1.94-1.32c.45-.31.84-.09,1,.59a5.55,5.55,0,0,1,0,2.62c-.34,1.45-.69,2.89-1,4.34s-.72,2.91-1.07,4.38m-7,1.2c-.35,1.46-.72,2.92-1.07,4.39s-.72,2.95-1.06,4.4a5.39,5.39,0,0,0,0,2.64c.19.69.58.87,1,.56l2-1.37,2-1.4a3.49,3.49,0,0,0,1.08-2,5.09,5.09,0,0,0,.05-2.62c-.31-1-.62-2-.91-3s-.6-2-.92-3c-.22-.66-.62-.87-1.07-.56a3.48,3.48,0,0,0-1.08,2"/><path class="cls-59" d="M192.49,805.06q-15.12,11.28-30.74,23c0-1.67.06-3.38.09-5.07q15.66-11.67,30.74-22.87c0,1.67-.06,3.32-.09,5"/><path class="cls-59" d="M192.33,813.31q-11.62,8.75-23.55,17.75c0-1.66.06-3.33.09-5q11.94-9,23.56-17.66c0,1.65-.07,3.3-.1,4.93"/><path class="cls-58" d="M192.65,796.78,161.9,819.55c.06-3.39.15-6.79.21-10.2l30.72-22.54-.18,10"/><path class="cls-26" d="M193.32,763q-15.1,10.78-30.79,22c.06-3.41.14-6.84.21-10.25L193.5,753l-.18,10"/><path class="cls-62" d="M127.15,722.89,142,724.68l14.85,1.8q-.66,36.67-1.3,73.33t-1.3,73.28l-14.84-1.79-14.86-1.79q.64-36.62,1.29-73.28t1.3-73.34"/><path class="cls-63" d="M150.77,810.84l-10.94-1.32-10.94-1.32c0-1.43.05-2.89.08-4.34l10.94,1.32,10.94,1.32c0,1.45-.06,2.9-.08,4.34"/><path class="cls-63" d="M150.64,818.08l-8.42-1-8.43-1c0-1.44.06-2.89.08-4.34l8.43,1,8.42,1c0,1.45-.05,2.91-.08,4.34"/><path class="cls-64" d="M150.9,803.58,140,802.26,129,801l.15-8.74,10.94,1.32,10.94,1.31c-.05,2.92-.1,5.84-.15,8.74"/><path class="cls-63" d="M150.25,840.38l-10.94-1.32-10.94-1.31c0-1.44,0-2.89.07-4.34l10.94,1.32L150.32,836c0,1.46,0,2.91-.07,4.34"/><path class="cls-63" d="M150.12,847.64l-8.42-1-8.43-1c0-1.44,0-2.89.08-4.34l8.42,1,8.43,1c0,1.45-.06,2.9-.08,4.34"/><path class="cls-63" d="M150.37,833.14l-10.93-1.32-10.95-1.32c0-1.45.06-2.9.08-4.36l10.94,1.31,10.94,1.32c0,1.47,0,2.92-.08,4.37"/><path class="cls-63" d="M151.76,754.51l-10.93-1.32-10.94-1.32c0-1.44.05-2.89.08-4.34l10.93,1.32,10.94,1.32c0,1.45-.05,2.9-.08,4.34"/><path class="cls-63" d="M151.63,761.75l-8.42-1-8.42-1c0-1.44.05-2.89.08-4.34l8.42,1,8.42,1c0,1.45-.05,2.91-.08,4.34"/><path class="cls-64" d="M151.89,747.25,141,745.93l-11-1.32c.06-2.9.11-5.8.16-8.72l10.94,1.32L152,738.53c0,2.92-.1,5.82-.15,8.72"/><polygon class="cls-57" points="200.99 697.14 171.28 693.56 127.15 722.89 156.86 726.47 200.99 697.14"/><path class="cls-57" d="M150.4,738.53q-17.73,11.91-36.26,24.32-.52,36.06-1.11,71.92t-1.1,71.28c12.22-9.53,24.27-18.89,36-28.06q.57-34.61,1.21-69.43t1.22-70"/><path class="cls-65" d="M150.4,738.53c-5.85,3.94-11.82,7.94-17.84,12l-18.42,12.34q-.27,19-.58,38,9.12,1.95,18.09,3.81c6.1-9.79,12.15-19.52,18.1-29.11q.31-18.47.65-37"/><path class="cls-26" d="M135.56,771.07c-.29,1.25-.61,2.46-.9,3.68s-.59,2.43-.89,3.66a4.15,4.15,0,0,0,0,2.18c.19.56.5.74.86.48.57-.41,1.15-.8,1.73-1.2l1.69-1.18a3,3,0,0,0,1-1.74,4.44,4.44,0,0,0,0-2.17c-.25-.83-.54-1.65-.8-2.48s-.55-1.64-.82-2.48c-.19-.55-.49-.74-.87-.48a3.05,3.05,0,0,0-.95,1.73M133,775.81a3.07,3.07,0,0,1-.92,1.72c-.4.26-.74.12-.93-.44-.27-.82-.57-1.63-.82-2.48s-.53-1.67-.8-2.52a4.11,4.11,0,0,1,0-2.2,2.89,2.89,0,0,1,.93-1.71c.6-.4,1.18-.8,1.75-1.2l1.73-1.17c.38-.27.75-.12.92.44a4.34,4.34,0,0,1,0,2.2c-.3,1.23-.6,2.46-.92,3.68s-.61,2.47-.93,3.68m-6.15,1.24c-.31,1.25-.64,2.47-.93,3.7s-.62,2.48-.92,3.7a4,4,0,0,0,0,2.2c.2.55.53.73.92.46.58-.41,1.15-.82,1.73-1.2s1.15-.81,1.75-1.22a3.08,3.08,0,0,0,1-1.76,4.14,4.14,0,0,0,0-2.18c-.29-.84-.54-1.65-.83-2.49s-.55-1.63-.83-2.49c-.18-.56-.51-.73-.92-.46a2.94,2.94,0,0,0-.92,1.74"/><path class="cls-65" d="M148.16,866.73l-36,27.76c-.06,3.86-.15,7.73-.2,11.56,12.22-9.53,24.27-18.89,36-28.06.06-3.73.12-7.5.19-11.26"/><path class="cls-59" d="M145.16,822.36Q132,832,118.54,841.88c0-1.4,0-2.78.09-4.21l26.6-19.42c0,1.38,0,2.75-.07,4.11"/><path class="cls-59" d="M145.05,829.27q-10.1,7.49-20.4,15.07l.06-4.21,20.41-15c0,1.39-.05,2.76-.07,4.12"/><path class="cls-65" d="M145.28,815.47q-13.09,9.54-26.6,19.36c0-2.82.08-5.66.12-8.5l26.61-19.2c0,2.77-.09,5.55-.13,8.34"/><path class="cls-59" d="M144.67,850.48q-13.11,9.88-26.56,20.06c0-1.38,0-2.79.06-4.19q13.49-10.15,26.57-20c0,1.37,0,2.75-.07,4.11"/><path class="cls-59" d="M144.56,857.37q-10.08,7.67-20.37,15.48c0-1.38,0-2.78.09-4.18q10.26-7.8,20.35-15.42c0,1.39,0,2.75-.07,4.12"/><path class="cls-59" d="M144.79,843.6q-13.08,9.82-26.57,19.93l.06-4.25q13.48-10.08,26.58-19.84c0,1.39-.05,2.77-.07,4.16"/><polygon class="cls-57" points="150.4 738.53 118.55 734.52 82.29 758.83 114.14 762.85 150.4 738.53"/><path class="cls-62" d="M82.29,758.83l15.94,2,15.91,2q-.54,35.83-1.11,71.63t-1.1,71.57L96,904c-5.31-.67-10.62-1.33-15.93-2q.54-35.76,1.11-71.57t1.1-71.63"/><path class="cls-63" d="M107.94,845.17l-11.72-1.48-11.74-1.48c0-1.4,0-2.82.07-4.24l11.73,1.48L108,840.93c0,1.42-.05,2.84-.07,4.24"/><path class="cls-63" d="M107.83,852.24l-9-1.13-9-1.14.06-4.24,9,1.14,9,1.13c0,1.42-.05,2.84-.07,4.24"/><path class="cls-66" d="M108.05,838.08,96.32,836.6l-11.73-1.48c0-2.83.09-5.68.13-8.53l11.74,1.48,11.72,1.47c0,2.85-.09,5.71-.13,8.54"/><path class="cls-63" d="M107.49,874l-11.72-1.48L84,871.07c0-1.4,0-2.82.07-4.24l11.73,1.48,11.73,1.48c0,1.41,0,2.83-.07,4.24"/><path class="cls-63" d="M107.38,881.11l-9-1.13-9-1.14.06-4.24,9,1.14,9,1.13c0,1.42,0,2.84-.07,4.24"/><path class="cls-63" d="M107.6,867l-11.72-1.48L84.14,864c0-1.42,0-2.83.07-4.27l11.73,1.48,11.73,1.48c0,1.44,0,2.85-.07,4.27"/><path class="cls-63" d="M108.79,790.15l-11.72-1.48-11.74-1.48c0-1.4,0-2.82.07-4.23l11.73,1.48c3.91.48,7.82,1,11.73,1.47,0,1.42,0,2.84-.07,4.24"/><path class="cls-63" d="M108.68,797.22l-9-1.13-9-1.14c0-1.4,0-2.81.07-4.23l9,1.14,9,1.14c0,1.42,0,2.82-.07,4.22"/><path class="cls-66" d="M108.9,783.06l-11.72-1.47-11.74-1.48c0-2.84.09-5.67.14-8.53l11.73,1.49L109,774.54c-.05,2.85-.09,5.69-.14,8.52"/><path class="cls-67" d="M104.69,845.36q-35.59,25.93-74,53.88c-.13,11.81-.26,23.64-.38,35.42S30.09,958.2,30,969.9q38.22-29.77,73.72-57.41.24-16.69.5-33.48c.17-11.18.32-22.42.51-33.65"/><path class="cls-55" d="M99.19,881.55l-48,36.17c0,1.74,0,3.45-.06,5.17q24.6-18.66,48-36.36c0-1.65,0-3.31.07-5"/><path class="cls-26" d="M86.86,873.44c-.29,1.24-.61,2.46-1,3.71s-.6,2.49-.92,3.72A4.44,4.44,0,0,0,85,883c.18.54.53.67,1,.36s1.14-.87,1.75-1.31,1.2-.9,1.78-1.33a3.28,3.28,0,0,0,1-1.81,4.29,4.29,0,0,0,0-2.16c-.26-.79-.55-1.58-.84-2.38s-.58-1.57-.86-2.37c-.21-.53-.53-.68-.92-.4a3.35,3.35,0,0,0-1,1.8m6.29-1.7h0a3.14,3.14,0,0,1-1,1.76c-.39.31-.75.18-.92-.37-.26-.8-.58-1.57-.86-2.37s-.52-1.62-.84-2.38a4.22,4.22,0,0,1,.06-2.19,3.28,3.28,0,0,1,.92-1.77l1.81-1.31,1.72-1.27c.4-.3.75-.15.93.38a3.88,3.88,0,0,1,0,2.16c-.28,1.21-.6,2.44-.91,3.68s-.6,2.44-.92,3.68m2.58-4.86c-.29,1.23-.61,2.45-.92,3.68s-.6,2.47-.92,3.69a3.78,3.78,0,0,0,0,2.16c.18.54.5.67.89.39l1.75-1.32c.64-.45,1.21-.88,1.78-1.31a3.41,3.41,0,0,0,.92-1.76,3.66,3.66,0,0,0,0-2.15c-.25-.79-.54-1.57-.83-2.37s-.52-1.59-.8-2.39c-.21-.53-.53-.68-.92-.37a3,3,0,0,0-1,1.75"/><path class="cls-26" d="M35,910.5l19.19-14.19-.06,5.07L34.94,915.65,35,910.5"/><path class="cls-55" d="M99.09,888.94q-17.72,13.48-36.17,27.45c0,1.68,0,3.38-.06,5.09Q81.3,907.4,99,893.9c0-1.65,0-3.29.07-5"/><path class="cls-55" d="M103.71,910,30,967.32q0,1.3,0,2.58,38.22-29.77,73.72-57.41l0-2.46"/><path class="cls-26" d="M98.91,902.12l-26,20c0,1.87,0,3.73-.07,5.58l26-20.09c0-1.82,0-3.65.08-5.49"/><polygon class="cls-56" points="104.69 845.36 80.81 841.86 6.83 895.74 30.72 899.24 104.69 845.36"/><path class="cls-60" d="M30.72,899.24l-11.94-1.75-12-1.75q-.18,17.68-.37,35.35t-.38,35.32l12,1.74L30,969.9q.2-17.64.38-35.32t.38-35.34"/><path class="cls-68" d="M30,967.31l-11.93-1.75L6.11,963.81l0,2.6,12,1.74L30,969.9c0-.85,0-1.72,0-2.59"/><path class="cls-68" d="M25.33,913.06l-3.35-.5q-.14,12-.26,23.94t-.26,23.92l3.36.49Q25,949,25.08,937t.25-23.93"/><path class="cls-69" d="M20.3,912.32,17,911.83q-.14,12-.26,23.93t-.26,23.92l3.36.49q.13-12,.26-23.92t.25-23.93"/><path class="cls-69" d="M15.14,923.71l-3.36-.49c-.06,5.95-.13,11.92-.19,17.87S11.47,953,11.4,959l3.36.49q.09-8.93.19-17.86c.06-6,.12-11.92.19-17.87"/><path class="cls-60" d="M22.67,824.21l-11.94-1.54-11.94-1.54q-.21,17.82-.4,35.64T-2,892.38l12,1.54,11.94,1.54q.2-17.79.39-35.61t.4-35.64"/><path class="cls-68" d="M21.91,892.84,10,891.31l-12-1.55c0,.88,0,1.76,0,2.62l12,1.54,11.94,1.54c0-.86,0-1.74,0-2.62"/><path class="cls-68" d="M17.28,838.24l-3.36-.43-.27,24.13q-.13,12.06-.26,24.12l3.35.43L17,862.37q.14-12,.27-24.13"/><path class="cls-69" d="M12.24,837.59l-3.35-.43-.27,24.13-.27,24.12,3.36.43L12,861.72q.12-12,.26-24.13"/><path class="cls-69" d="M7.08,849.17l-3.36-.43c-.06,6-.13,12-.2,18s-.13,12-.2,18l3.36.43q.09-9,.2-18t.2-18"/><path class="cls-67" d="M96.86,773.83q-35.73,24.24-74.19,50.38-.2,17.91-.38,35.72c-.13,11.87-.29,23.7-.41,35.53l74-54q.24-16.86.51-33.74c.18-11.27.32-22.57.51-33.9"/><path class="cls-55" d="M91.35,810c-15.69,11-31.71,22.32-48.22,33.94,0,1.74,0,3.46-.06,5.18,16.5-11.65,32.52-23,48.21-34.11,0-1.66,0-3.33.07-5"/><path class="cls-26" d="M79,801.2c-.31,1.22-.63,2.45-1,3.7s-.63,2.46-.94,3.69a4.33,4.33,0,0,0,0,2.17c.21.56.54.7,1,.41s1.18-.82,1.75-1.22,1.21-.85,1.82-1.26a3.22,3.22,0,0,0,1-1.76,4.4,4.4,0,0,0,0-2.16c-.26-.82-.58-1.62-.87-2.45s-.55-1.62-.86-2.44c-.18-.54-.53-.7-.9-.44a3,3,0,0,0-1,1.76m6.28-1.39h0a3,3,0,0,1-.92,1.74c-.42.28-.75.14-1-.44-.26-.82-.55-1.61-.87-2.43s-.52-1.66-.81-2.46a3.77,3.77,0,0,1,0-2.18,3,3,0,0,1,1-1.74c.6-.43,1.21-.83,1.78-1.23s1.15-.8,1.76-1.19c.39-.28.72-.12.92.42a3.89,3.89,0,0,1,0,2.19c-.29,1.2-.6,2.42-.92,3.66s-.6,2.44-.95,3.66m2.62-4.76c-.29,1.22-.61,2.44-.95,3.66s-.61,2.46-.92,3.68a3.78,3.78,0,0,0,0,2.16c.2.55.53.69.89.44.64-.43,1.21-.84,1.78-1.24l1.76-1.23a3,3,0,0,0,1-1.72,3.74,3.74,0,0,0,0-2.15c-.26-.82-.55-1.61-.83-2.44s-.52-1.64-.81-2.45c-.2-.56-.53-.72-1-.44a2.93,2.93,0,0,0-.92,1.73"/><path class="cls-26" d="M26.93,835.81,46.2,822.52l-.06,5.12C39.82,832,33.38,836.5,26.88,841c0-1.75,0-3.47.05-5.21"/><path class="cls-55" d="M91.25,817.48Q73.43,830.11,55,843.21l-.06,5.14q18.48-13.2,36.29-25.88c0-1.66,0-3.32.07-5"/><path class="cls-55" d="M95.88,839l-74,53.88c0,.85,0,1.73,0,2.6l74-54c0-.83,0-1.66,0-2.49"/><path class="cls-26" d="M91.06,830.73Q78.19,840,64.93,849.53c0,1.89,0,3.76-.07,5.64q13.23-9.61,26.09-18.9c0-1.84.09-3.68.11-5.54"/><polygon class="cls-56" points="96.86 773.84 72.98 770.75 -1.22 821.13 22.67 824.21 96.86 773.84"/><rect class="cls-1" x="0.23" width="1919.77" height="1080"/><g class="cls-52"><path class="cls-70" d="M1553.05,487.59v67.08c0,4.26-13.25,7.72-29.58,7.72s-29.59-3.46-29.59-7.72V487.59a13.62,13.62,0,0,1,7.18-11.9c7.61-4.36,3.08-6.84,3.08-6.84l19.33-2.36,19.32,2.36s-4.53,2.48,3.08,6.84a13.62,13.62,0,0,1,7.18,11.9"/><path class="cls-70" d="M1553.05,487.59v67.08c0,4.26-13.25,7.72-29.58,7.72a98.63,98.63,0,0,1-15.5-1.15c16.32-19.55,27.81-53.79,18-93.21l.61-1.15,16.2,2s-4.53,2.48,3.08,6.84a13.62,13.62,0,0,1,7.18,11.9"/><path class="cls-70" d="M1553.05,553.57v1.1c0,4.26-13.25,7.72-29.59,7.72s-29.4-3.41-29.58-7.64c6.72,2,38.69,10.28,59.17-1.18"/><path class="cls-70" d="M1500,476.35c.33-.23.67-.45,1-.66,7.61-4.36,3.08-6.85,3.08-6.85l19.32-2.35,19.33,2.35s-4.53,2.49,3.08,6.85c.37.21.72.43,1.05.65-2.35,1.63-12,2.85-23.46,2.85s-21.09-1.22-23.44-2.84"/><path class="cls-71" d="M1523.47,475.75c12.65,0,22.91-1.55,22.91-3.46v-15h-45.83v15c0,1.91,10.26,3.46,22.92,3.46"/><path class="cls-72" d="M1523.47,475.74c12.65,0,22.91-1.54,22.91-3.45V457.24h-22.09a68.82,68.82,0,0,1-1,18.5Z"/><path class="cls-73" d="M1523.47,460.7c12.65,0,22.91-1.55,22.91-3.45s-10.26-3.46-22.91-3.46-22.92,1.55-22.92,3.46,10.26,3.45,22.92,3.45"/><path class="cls-74" d="M1502.46,460.38v11.53s1.13-2.82,0-11.53m39.49.36v11.53s1.14-2.82,0-11.53m-36.26.36v11.53s1.13-2.82,0-11.53m3.27.46v11.53s1.14-2.81,0-11.53m3.3.32v11.53s1.13-2.82,0-11.53m3.3.22v11.53s1.14-2.82,0-11.53m3.31.12v11.53s1.14-2.82,0-11.53m3.31.06v11.53s1.14-2.82,0-11.53m3.31,0v11.52s1.14-2.81,0-11.52m3.31-.1v11.53s1.14-2.82,0-11.53m3.31-.18v11.54s1.14-2.82,0-11.54m3.3-.26v11.53s1.13-2.82,0-11.53m3.29-.4v11.53s1.13-2.82,0-11.53"/><path class="cls-71" d="M1553.05,539.92v2.75c-3.52,3.4-15.44,5.91-29.59,5.91s-26.06-2.51-29.58-5.91v-2.75c3.52,3.41,15.43,5.92,29.58,5.92s26.07-2.51,29.59-5.92"/><path class="cls-57" d="M1499.84,514.91a145,145,0,0,0,15.17,1.76c5,.28,10.1.23,15.15.11v3.35c-5.05.11-10.11.16-15.15-.13a145.13,145.13,0,0,1-15.17-1.79Z"/><path class="cls-57" d="M1499.84,521c3.78.66,7.55,1.22,11.33,1.55s7.55.45,11.33.53v3.35c-3.78-.1-7.56-.23-11.33-.56s-7.55-.9-11.33-1.59Z"/><path class="cls-57" d="M1504.66,502.09c.38.7.75,1.41,1.12,2.11s.74,1.4,1.12,2.1a1.42,1.42,0,0,1,0,1.41,1.17,1.17,0,0,1-1.19.55l-2.25-.29c-.74-.11-1.49-.22-2.23-.35a1.64,1.64,0,0,1-1.19-.89,1.33,1.33,0,0,1,0-1.39l1.11-1.79c.38-.59.74-1.19,1.12-1.79a1.17,1.17,0,0,1,1.19-.51,1.58,1.58,0,0,1,1.2.84m3.23,2.3a1.49,1.49,0,0,0,1.19.81,1.24,1.24,0,0,0,1.2-.59l1.12-1.9,1.11-1.9a1.37,1.37,0,0,0,0-1.41,1.44,1.44,0,0,0-1.19-.77c-.75-.05-1.49-.12-2.24-.19s-1.49-.12-2.24-.2a1.18,1.18,0,0,0-1.19.57,1.35,1.35,0,0,0,0,1.4l1.12,2.1c.37.7.74,1.39,1.12,2.08m8-1.39c.37.68.74,1.36,1.12,2l1.11,2a1.37,1.37,0,0,1,0,1.41,1.26,1.26,0,0,1-1.19.65c-.75,0-1.49-.05-2.24-.1s-1.49-.08-2.24-.13a1.44,1.44,0,0,1-1.19-.78,1.37,1.37,0,0,1,0-1.41l1.12-1.91,1.12-1.91a1.24,1.24,0,0,1,1.19-.63,1.44,1.44,0,0,1,1.2.75"/><path class="cls-75" d="M1510.12,492.49v67.08c0,4.26-13.25,7.72-29.59,7.72s-29.59-3.46-29.59-7.72V492.49a13.62,13.62,0,0,1,7.18-11.9c7.61-4.36,3.08-6.84,3.08-6.84l19.33-2.36,19.33,2.36s-4.54,2.48,3.07,6.84a13.65,13.65,0,0,1,7.19,11.9"/><path class="cls-76" d="M1510.12,492.49v67.08c0,4.26-13.25,7.72-29.59,7.72a98.72,98.72,0,0,1-15.5-1.15c16.32-19.55,27.82-53.79,18-93.21l.62-1.15,16.2,2s-4.53,2.48,3.07,6.84a13.65,13.65,0,0,1,7.19,11.9"/><path class="cls-70" d="M1510.11,558.47v1.1c0,4.26-13.25,7.72-29.58,7.72s-29.4-3.41-29.58-7.64c6.72,2,38.69,10.28,59.16-1.18"/><path class="cls-70" d="M1457.08,481.25c.33-.23.68-.45,1-.66,7.61-4.36,3.08-6.85,3.08-6.85l19.33-2.35,19.33,2.35s-4.54,2.49,3.07,6.85c.37.21.72.43,1,.65-2.35,1.63-12,2.85-23.45,2.85s-21.1-1.22-23.45-2.84"/><path class="cls-71" d="M1480.53,480.65c12.65,0,22.91-1.55,22.91-3.46V462.14h-45.82v15.05c0,1.91,10.26,3.46,22.91,3.46"/><path class="cls-72" d="M1480.53,480.65c12.65,0,22.91-1.55,22.91-3.46V462.14h-22.09a68.5,68.5,0,0,1-1,18.51Z"/><path class="cls-73" d="M1480.53,465.6c12.65,0,22.91-1.55,22.91-3.46s-10.26-3.45-22.91-3.45-22.91,1.55-22.91,3.45,10.26,3.46,22.91,3.46"/><path class="cls-74" d="M1459.52,465.28v11.53s1.13-2.82,0-11.53m39.49.36v11.53s1.14-2.82,0-11.53m-36.26.36v11.53s1.13-2.82,0-11.53m3.28.46V478s1.13-2.81,0-11.53m3.3.32v11.53s1.13-2.82,0-11.53m3.3.22v11.53s1.13-2.82,0-11.53m3.3.12v11.53s1.14-2.82,0-11.53m3.31.06v11.53s1.14-2.82,0-11.53m3.31,0v11.53s1.14-2.81,0-11.53m3.31-.09v11.53s1.14-2.82,0-11.53m3.31-.17v11.53s1.14-2.82,0-11.53m3.3-.27v11.53s1.14-2.82,0-11.53m3.29-.4v11.53s1.14-2.82,0-11.53"/><path class="cls-71" d="M1510.11,544.82v2.75c-3.52,3.4-15.43,5.91-29.58,5.91s-26.07-2.51-29.59-5.91v-2.75c3.52,3.41,15.43,5.92,29.59,5.92s26.06-2.51,29.58-5.92"/><path class="cls-26" d="M1456.9,519.81a145,145,0,0,0,15.17,1.76c5,.28,10.1.23,15.16.11V525c-5.06.11-10.12.16-15.16-.12a147.9,147.9,0,0,1-15.17-1.8Z"/><path class="cls-26" d="M1456.9,525.91c3.78.66,7.55,1.21,11.33,1.55s7.55.45,11.33.53v3.35c-3.78-.09-7.56-.23-11.33-.56s-7.55-.9-11.33-1.59Z"/><path class="cls-26" d="M1461.72,507c.38.7.75,1.41,1.12,2.11s.75,1.4,1.12,2.1a1.42,1.42,0,0,1,0,1.41,1.16,1.16,0,0,1-1.19.55l-2.24-.29-2.24-.35a1.65,1.65,0,0,1-1.19-.89,1.36,1.36,0,0,1,0-1.39l1.12-1.79,1.12-1.79a1.15,1.15,0,0,1,1.19-.51,1.57,1.57,0,0,1,1.19.84m3.23,2.3a1.51,1.51,0,0,0,1.19.81,1.23,1.23,0,0,0,1.2-.59c.37-.62.74-1.26,1.12-1.89l1.11-1.91a1.37,1.37,0,0,0,0-1.41,1.47,1.47,0,0,0-1.19-.78l-2.24-.18c-.74-.06-1.49-.12-2.23-.2a1.21,1.21,0,0,0-1.2.57,1.4,1.4,0,0,0,0,1.4l1.12,2.1c.37.7.74,1.39,1.12,2.08m8-1.39c.37.69.74,1.36,1.12,2l1.11,2a1.37,1.37,0,0,1,0,1.41,1.26,1.26,0,0,1-1.19.65l-2.24-.09-2.23-.14a1.47,1.47,0,0,1-1.2-.78,1.42,1.42,0,0,1,0-1.41l1.12-1.91,1.12-1.91a1.25,1.25,0,0,1,1.19-.63,1.44,1.44,0,0,1,1.2.75"/><path class="cls-70" d="M1605.69,505.9v69.78c0,4.43-13.78,8-30.78,8s-30.78-3.6-30.78-8V505.9a14.16,14.16,0,0,1,7.47-12.38c7.92-4.54,3.2-7.12,3.2-7.12l20.11-2.44L1595,486.4s-4.72,2.58,3.2,7.12a14.19,14.19,0,0,1,7.47,12.38"/><path class="cls-70" d="M1605.69,505.9v69.78c0,4.43-13.78,8-30.78,8a103.81,103.81,0,0,1-16.12-1.19c17-20.34,28.93-56,18.74-97l.63-1.21,16.86,2s-4.71,2.58,3.2,7.12a14.19,14.19,0,0,1,7.47,12.38"/><path class="cls-70" d="M1605.69,574.54v1.14c0,4.43-13.78,8-30.78,8s-30.59-3.54-30.77-7.94c7,2,40.25,10.69,61.55-1.23"/><path class="cls-70" d="M1550.52,494.2c.34-.23.7-.46,1.08-.68,7.92-4.54,3.21-7.12,3.21-7.12l20.1-2.44L1595,486.4s-4.72,2.58,3.2,7.12c.38.22.75.45,1.09.68-2.45,1.69-12.44,3-24.4,3s-21.94-1.27-24.39-3"/><path class="cls-71" d="M1574.91,493.58c13.16,0,23.84-1.61,23.84-3.6V474.33h-47.68V490c0,2,10.68,3.6,23.84,3.6"/><path class="cls-72" d="M1574.91,493.58c13.16,0,23.84-1.61,23.84-3.59V474.33h-23a71.64,71.64,0,0,1-1,19.25Z"/><path class="cls-73" d="M1574.91,477.93c13.16,0,23.84-1.62,23.84-3.6s-10.68-3.59-23.84-3.59-23.84,1.61-23.84,3.59,10.68,3.6,23.84,3.6"/><path class="cls-74" d="M1553.06,477.6v12s1.18-2.93,0-12m41.08.37v12s1.18-2.93,0-12m-37.72.38v12s1.18-2.93,0-12m3.41.48v12s1.18-2.93,0-12m3.43.33v12s1.18-2.93,0-12m3.43.22v12s1.18-2.93,0-12m3.44.13v12s1.19-2.94,0-12m3.45.06v12s1.18-2.93,0-12m3.44,0v12s1.18-2.93,0-12m3.44-.1v12s1.19-2.93,0-12m3.44-.19v12s1.18-2.93,0-12m3.43-.28v12s1.18-2.93,0-12m3.42-.4v12s1.19-2.93,0-12"/><path class="cls-71" d="M1605.69,560.34v2.85c-3.66,3.55-16.06,6.15-30.78,6.15s-27.12-2.6-30.77-6.15v-2.85c3.65,3.54,16,6.15,30.77,6.15s27.12-2.61,30.78-6.15"/><path class="cls-57" d="M1550.34,534.32a151.13,151.13,0,0,0,15.77,1.83c5.25.29,10.51.24,15.77.12v3.48c-5.26.12-10.52.17-15.77-.13a151,151,0,0,1-15.77-1.87Z"/><path class="cls-57" d="M1550.34,540.66c3.93.69,7.85,1.27,11.78,1.62s7.85.47,11.79.55v3.48c-3.94-.1-7.87-.23-11.79-.58s-7.85-.94-11.78-1.65Z"/><path class="cls-57" d="M1555.35,521c.38.72.78,1.46,1.16,2.19l1.17,2.19a1.46,1.46,0,0,1,0,1.46,1.24,1.24,0,0,1-1.24.58l-2.33-.31-2.33-.36a1.74,1.74,0,0,1-1.24-.93,1.44,1.44,0,0,1,0-1.45c.38-.62.77-1.23,1.16-1.85l1.16-1.87a1.22,1.22,0,0,1,1.25-.53,1.67,1.67,0,0,1,1.24.88m3.35,2.39a1.6,1.6,0,0,0,1.24.84,1.28,1.28,0,0,0,1.25-.61c.39-.65.77-1.32,1.16-2l1.17-2a1.46,1.46,0,0,0,0-1.46,1.51,1.51,0,0,0-1.25-.81c-.77,0-1.55-.12-2.33-.19s-1.55-.13-2.32-.21a1.25,1.25,0,0,0-1.24.59,1.42,1.42,0,0,0,0,1.46l1.16,2.18,1.16,2.17m8.33-1.45,1.16,2.12c.39.69.78,1.41,1.16,2.1a1.44,1.44,0,0,1,0,1.47,1.31,1.31,0,0,1-1.24.68l-2.33-.1-2.33-.15a1.51,1.51,0,0,1-1.24-.81,1.46,1.46,0,0,1,0-1.46l1.17-2c.38-.67.77-1.33,1.16-2a1.3,1.3,0,0,1,1.24-.66,1.51,1.51,0,0,1,1.25.78"/><path class="cls-75" d="M1561,511v69.77c0,4.44-13.78,8-30.78,8s-30.77-3.6-30.77-8V511a14.16,14.16,0,0,1,7.47-12.38c7.91-4.54,3.2-7.12,3.2-7.12l20.1-2.45,20.11,2.45s-4.71,2.58,3.2,7.12A14.16,14.16,0,0,1,1561,511"/><path class="cls-76" d="M1561,511v69.77c0,4.44-13.78,8-30.78,8a102.29,102.29,0,0,1-16.11-1.2c17-20.33,28.93-56,18.73-97l.64-1.2,16.85,2.05s-4.71,2.58,3.2,7.12A14.16,14.16,0,0,1,1561,511"/><path class="cls-70" d="M1561,579.63v1.14c0,4.44-13.78,8-30.78,8s-30.58-3.55-30.77-7.95c7,2,40.25,10.7,61.55-1.23"/><path class="cls-70" d="M1505.85,499.3c.35-.23.7-.46,1.09-.68,7.91-4.54,3.2-7.13,3.2-7.13l20.1-2.44,20.11,2.44s-4.71,2.59,3.21,7.13c.38.22.74.45,1.08.68-2.44,1.69-12.44,2.95-24.4,2.95s-21.94-1.26-24.39-2.95"/><path class="cls-71" d="M1530.25,498.68c13.16,0,23.83-1.61,23.83-3.6V479.43h-47.67v15.65c0,2,10.67,3.6,23.84,3.6"/><path class="cls-72" d="M1530.25,498.67c13.16,0,23.83-1.6,23.83-3.59V479.43h-23a70.74,70.74,0,0,1-1,19.24Z"/><path class="cls-73" d="M1530.25,483c13.16,0,23.83-1.61,23.83-3.59s-10.67-3.6-23.83-3.6-23.84,1.61-23.84,3.6,10.67,3.59,23.84,3.59"/><path class="cls-74" d="M1508.39,482.69v12s1.18-2.93,0-12m41.08.38v12s1.19-2.93,0-12m-37.72.37v12s1.18-2.94,0-12m3.41.48v12s1.19-2.93,0-12m3.43.33v12s1.18-2.94,0-12m3.44.23v12s1.18-2.93,0-12m3.44.13v12s1.18-2.93,0-12m3.44.05v12s1.18-2.93,0-12m3.44,0v12s1.18-2.94,0-12m3.45-.1v12s1.18-2.94,0-12m3.43-.18v12s1.18-2.94,0-12m3.44-.28v12s1.18-2.94,0-12m3.42-.41v12s1.18-2.94,0-12"/><path class="cls-71" d="M1561,565.44v2.85c-3.66,3.54-16,6.15-30.78,6.15s-27.11-2.61-30.77-6.15v-2.85c3.66,3.54,16,6.15,30.77,6.15s27.12-2.61,30.78-6.15"/><path class="cls-26" d="M1505.67,539.42a156.72,156.72,0,0,0,15.77,1.83c5.25.29,10.51.24,15.77.11v3.49c-5.26.12-10.52.17-15.77-.13a154,154,0,0,1-15.77-1.87Z"/><path class="cls-26" d="M1505.67,545.76c3.93.69,7.85,1.27,11.78,1.61s7.86.47,11.79.56v3.48c-3.93-.1-7.86-.24-11.79-.58s-7.85-.94-11.78-1.65Z"/><path class="cls-26" d="M1510.68,526.08l1.17,2.2c.38.73.77,1.45,1.16,2.18a1.46,1.46,0,0,1,0,1.46,1.2,1.2,0,0,1-1.24.58c-.78-.09-1.56-.2-2.33-.3l-2.33-.37a1.69,1.69,0,0,1-1.24-.93,1.42,1.42,0,0,1,0-1.44l1.16-1.86c.39-.61.77-1.24,1.17-1.86a1.24,1.24,0,0,1,1.24-.54,1.64,1.64,0,0,1,1.24.88m3.36,2.4a1.55,1.55,0,0,0,1.24.83,1.24,1.24,0,0,0,1.24-.61c.4-.65.78-1.31,1.17-2l1.16-2a1.46,1.46,0,0,0,0-1.47,1.5,1.5,0,0,0-1.24-.8l-2.33-.19-2.33-.21a1.22,1.22,0,0,0-1.24.59,1.46,1.46,0,0,0,0,1.46l1.17,2.18c.38.73.77,1.45,1.16,2.17m8.32-1.45,1.16,2.11,1.17,2.11a1.46,1.46,0,0,1,0,1.46,1.35,1.35,0,0,1-1.25.69l-2.32-.1c-.78,0-1.55-.1-2.33-.15a1.49,1.49,0,0,1-1.24-.81,1.42,1.42,0,0,1,0-1.46c.38-.67.77-1.33,1.16-2s.77-1.33,1.17-2a1.31,1.31,0,0,1,1.24-.65,1.48,1.48,0,0,1,1.24.78"/><path class="cls-57" d="M1661.5,532V606c0,4.7-14.6,8.51-32.61,8.51s-32.62-3.81-32.62-8.51V532a15,15,0,0,1,7.92-13.12c8.39-4.81,3.39-7.54,3.39-7.54l21.31-2.6,21.3,2.6s-5,2.73,3.39,7.54A15,15,0,0,1,1661.5,532"/><path class="cls-69" d="M1661.5,532V606c0,4.7-14.6,8.51-32.61,8.51a109.37,109.37,0,0,1-17.08-1.26c18-21.55,30.65-59.29,19.85-102.74l.68-1.28,17.85,2.18s-5,2.73,3.39,7.54A15,15,0,0,1,1661.5,532"/><path class="cls-62" d="M1661.5,604.75V606c0,4.7-14.6,8.51-32.62,8.51s-32.4-3.75-32.6-8.41c7.41,2.15,42.65,11.33,65.22-1.31"/><path class="cls-77" d="M1603,519.63c.37-.24.75-.49,1.15-.72,8.39-4.81,3.4-7.55,3.4-7.55l21.29-2.59,21.31,2.59s-5,2.74,3.4,7.55c.4.23.78.48,1.15.72-2.59,1.79-13.19,3.13-25.86,3.13s-23.24-1.34-25.84-3.13"/><path class="cls-69" d="M1628.89,519c13.94,0,25.25-1.7,25.25-3.81V498.58h-50.51v16.58c0,2.11,11.31,3.81,25.26,3.81"/><path class="cls-62" d="M1628.89,519c13.94,0,25.26-1.7,25.26-3.81V498.58H1629.8a75.72,75.72,0,0,1-1.07,20.39Z"/><path class="cls-57" d="M1628.89,502.39c13.94,0,25.25-1.71,25.25-3.81s-11.31-3.81-25.25-3.81-25.26,1.7-25.26,3.81,11.31,3.81,25.26,3.81"/><path class="cls-78" d="M1605.73,502v12.72s1.25-3.11,0-12.72"/><path class="cls-78" d="M1609.29,502.83v12.71s1.25-3.11,0-12.71"/><path class="cls-78" d="M1612.9,503.34v12.71s1.26-3.11,0-12.71"/><path class="cls-78" d="M1616.54,503.69V516.4s1.25-3.11,0-12.71"/><path class="cls-78" d="M1620.18,503.93v12.7s1.25-3.1,0-12.7"/><path class="cls-78" d="M1623.82,504.07v12.71s1.26-3.11,0-12.71"/><path class="cls-78" d="M1627.48,504.13v12.7s1.25-3.1,0-12.7"/><path class="cls-78" d="M1631.12,504.1v12.71s1.26-3.11,0-12.71"/><path class="cls-78" d="M1634.77,504v12.71s1.25-3.11,0-12.71"/><path class="cls-78" d="M1638.42,503.8v12.71s1.25-3.1,0-12.71"/><path class="cls-78" d="M1642.05,503.51v12.71s1.25-3.11,0-12.71"/><path class="cls-78" d="M1645.67,503.08v12.7s1.26-3.1,0-12.7"/><path class="cls-78" d="M1649.27,502.43v12.71s1.25-3.11,0-12.71"/><path class="cls-79" d="M1661.5,589.71v3c-3.88,3.76-17,6.52-32.62,6.52s-28.73-2.76-32.6-6.52v-3c3.87,3.75,17,6.52,32.6,6.52s28.74-2.77,32.62-6.52"/><path class="cls-78" d="M1602.85,562.14a161.06,161.06,0,0,0,16.71,1.94c5.57.31,11.14.26,16.71.12v3.69c-5.57.13-11.14.19-16.71-.13a163.64,163.64,0,0,1-16.71-2Z"/><path class="cls-78" d="M1602.85,568.86c4.16.73,8.32,1.35,12.48,1.71s8.33.5,12.5.59v3.68c-4.17-.1-8.34-.24-12.5-.61s-8.32-1-12.48-1.75Z"/><path class="cls-79" d="M1608.16,548l1.24,2.33,1.22,2.31a1.49,1.49,0,0,1,0,1.55,1.27,1.27,0,0,1-1.31.61l-2.47-.32-2.46-.38a1.82,1.82,0,0,1-1.32-1,1.52,1.52,0,0,1,0-1.53l1.23-2c.42-.65.82-1.31,1.24-2a1.27,1.27,0,0,1,1.31-.57,1.74,1.74,0,0,1,1.32.93m3.56,2.54a1.65,1.65,0,0,0,1.32.88,1.34,1.34,0,0,0,1.31-.64c.42-.69.82-1.39,1.23-2.09l1.24-2.1a1.58,1.58,0,0,0,0-1.56,1.64,1.64,0,0,0-1.32-.85L1613,544c-.83-.07-1.65-.13-2.47-.22a1.31,1.31,0,0,0-1.32.62,1.53,1.53,0,0,0,0,1.55l1.23,2.31c.41.77.82,1.54,1.24,2.3m8.81-1.53,1.24,2.23,1.23,2.24a1.54,1.54,0,0,1,0,1.55,1.39,1.39,0,0,1-1.32.72c-.82,0-1.64-.06-2.46-.11s-1.65-.09-2.47-.15a1.59,1.59,0,0,1-1.32-.86,1.53,1.53,0,0,1,0-1.55l1.24-2.1,1.23-2.11a1.41,1.41,0,0,1,1.32-.7,1.59,1.59,0,0,1,1.31.84"/><path class="cls-2" d="M1614.17,537.43v73.93c0,4.7-14.6,8.51-32.61,8.51s-32.61-3.81-32.61-8.51V537.43a15,15,0,0,1,7.91-13.12c8.39-4.81,3.4-7.54,3.4-7.54l21.3-2.59,21.3,2.59s-5,2.73,3.4,7.54a15,15,0,0,1,7.91,13.12"/><path class="cls-57" d="M1614.17,537.43v73.93c0,4.7-14.6,8.51-32.61,8.51a109.37,109.37,0,0,1-17.08-1.26c18-21.55,30.66-59.29,19.85-102.74l.68-1.28,17.85,2.18s-5,2.73,3.4,7.54a15,15,0,0,1,7.91,13.12"/><path class="cls-62" d="M1614.17,610.15v1.21c0,4.71-14.6,8.51-32.61,8.51s-32.41-3.75-32.61-8.41c7.41,2.15,42.65,11.33,65.22-1.31"/><path class="cls-77" d="M1555.71,525c.37-.24.75-.49,1.15-.71,8.39-4.81,3.4-7.56,3.4-7.56l21.3-2.58,21.3,2.58s-5,2.75,3.4,7.56a13.09,13.09,0,0,1,1.15.71c-2.59,1.8-13.18,3.13-25.85,3.13s-23.25-1.33-25.85-3.13"/><path class="cls-69" d="M1581.56,524.37c14,0,25.26-1.7,25.26-3.81V504H1556.3v16.58c0,2.11,11.31,3.81,25.26,3.81"/><path class="cls-62" d="M1581.56,524.37c14,0,25.26-1.7,25.26-3.81V504h-24.35a75.72,75.72,0,0,1-1.07,20.39Z"/><path class="cls-57" d="M1581.56,507.79c14,0,25.26-1.71,25.26-3.81s-11.31-3.81-25.26-3.81-25.26,1.7-25.26,3.81,11.31,3.81,25.26,3.81"/><path class="cls-78" d="M1558.4,507.44v12.71s1.26-3.11,0-12.71"/><path class="cls-78" d="M1562,508.23v12.71s1.25-3.11,0-12.71"/><path class="cls-78" d="M1565.58,508.74v12.71s1.25-3.11,0-12.71"/><path class="cls-78" d="M1569.21,509.09V521.8s1.25-3.11,0-12.71"/><path class="cls-78" d="M1572.85,509.33V522s1.26-3.11,0-12.71"/><path class="cls-78" d="M1576.5,509.47v12.71s1.25-3.11,0-12.71"/><path class="cls-78" d="M1580.15,509.53v12.7s1.25-3.1,0-12.7"/><path class="cls-78" d="M1583.79,509.5v12.71s1.26-3.11,0-12.71"/><path class="cls-78" d="M1587.44,509.4v12.71s1.26-3.11,0-12.71"/><path class="cls-78" d="M1591.09,509.2v12.72s1.25-3.11,0-12.72"/><path class="cls-78" d="M1594.72,508.91v12.71s1.26-3.11,0-12.71"/><path class="cls-78" d="M1598.35,508.48v12.7s1.25-3.1,0-12.7"/><path class="cls-78" d="M1601.94,507.83v12.71s1.25-3.1,0-12.71"/><path class="cls-79" d="M1614.17,595.11v3c-3.88,3.76-17,6.52-32.61,6.52s-28.73-2.76-32.61-6.52v-3c3.88,3.76,17,6.52,32.61,6.52s28.73-2.76,32.61-6.52"/><path class="cls-78" d="M1555.52,567.55a163.67,163.67,0,0,0,16.72,1.93c5.56.31,11.13.26,16.71.12v3.7c-5.58.12-11.15.18-16.71-.14a161.06,161.06,0,0,1-16.72-2Z"/><path class="cls-78" d="M1555.52,574.26c4.16.73,8.32,1.35,12.49,1.71s8.32.5,12.49.59v3.69c-4.17-.11-8.34-.25-12.49-.62s-8.33-1-12.49-1.75Z"/><path class="cls-79" d="M1560.83,553.41l1.24,2.33c.41.78.81,1.54,1.23,2.32a1.52,1.52,0,0,1,0,1.54,1.31,1.31,0,0,1-1.31.62l-2.47-.33-2.47-.38a1.84,1.84,0,0,1-1.32-1,1.52,1.52,0,0,1,0-1.53l1.23-2c.42-.65.82-1.31,1.24-2a1.3,1.3,0,0,1,1.32-.57,1.75,1.75,0,0,1,1.31.93m3.56,2.54a1.65,1.65,0,0,0,1.32.88,1.3,1.3,0,0,0,1.31-.64c.42-.69.82-1.39,1.23-2.09s.83-1.4,1.24-2.1a1.55,1.55,0,0,0,0-1.56,1.63,1.63,0,0,0-1.32-.85c-.82-.06-1.64-.12-2.46-.2s-1.65-.13-2.47-.22a1.33,1.33,0,0,0-1.32.62,1.53,1.53,0,0,0,0,1.55l1.24,2.32c.4.77.82,1.53,1.23,2.29m8.82-1.53,1.23,2.24c.41.73.82,1.49,1.23,2.23a1.53,1.53,0,0,1,0,1.55,1.38,1.38,0,0,1-1.32.72c-.82,0-1.64-.06-2.46-.11s-1.64-.09-2.47-.15a1.62,1.62,0,0,1-1.32-.85,1.6,1.6,0,0,1,0-1.56c.42-.7.83-1.4,1.24-2.1l1.23-2.11a1.4,1.4,0,0,1,1.32-.69,1.58,1.58,0,0,1,1.32.83"/><polygon class="cls-80" points="1764.7 591.65 1776.18 582.81 1772.41 648.03 1761.03 659.89 1764.7 591.65"/><polygon class="cls-81" points="1635.29 572.08 1650.43 564 1776.18 582.81 1764.7 591.65 1635.29 572.08"/><path class="cls-82" d="M1635.28,572.08l61.74,9.34,67.68,10.23q-.93,17.42-1.85,34.53T1761,659.89l-66-13.06-60.34-11.94q.15-15.4.31-31.06t.3-31.75"/><path class="cls-82" d="M1700.55,582q5.13,17.61,10.28,35.15T1721.06,652l19.7,3.9,20.25,4q.9-16.71,1.81-33.7t1.86-34.53l-32.78-5L1700.55,582"/><path class="cls-55" d="M1643.29,604.15l40.1,7,42.56,7.41c-.07,1.64-.13,3.28-.2,4.91l-42.48-7.53-40-7.1.06-4.66"/><path class="cls-55" d="M1643.2,611.07l30.16,5.4,31.54,5.65c-.05,1.6-.11,3.22-.17,4.81l-31.48-5.74-30.11-5.49.06-4.63"/><path class="cls-26" d="M1664.92,591.19c.49,1,1,2.1,1.47,3.15s1,2.09,1.45,3.15a2.15,2.15,0,0,1,0,2,1.54,1.54,0,0,1-1.64.76l-3-.51-3-.51a2.18,2.18,0,0,1-1.59-1.29,2.15,2.15,0,0,1,0-2c.5-.87,1-1.75,1.55-2.63s1-1.76,1.57-2.64a1.53,1.53,0,0,1,1.64-.77,2.14,2.14,0,0,1,1.59,1.29m-10.83,1.08h0a2.16,2.16,0,0,0,1.58,1.3,1.53,1.53,0,0,0,1.62-.77l1.55-2.64c.52-.88,1-1.76,1.58-2.65a2.23,2.23,0,0,0,0-2.06,2.14,2.14,0,0,0-1.59-1.29l-3-.47-3-.47a1.5,1.5,0,0,0-1.61.77,2.21,2.21,0,0,0,0,2c.49,1,1,2.08,1.46,3.12s.95,2.08,1.43,3.11m-4.23-3.51c.47,1,.94,2.06,1.45,3.11s.94,2.07,1.43,3.11a2.22,2.22,0,0,1,0,2,1.5,1.5,0,0,1-1.6.74l-3-.5-3-.49a2.18,2.18,0,0,1-1.56-1.28,2.15,2.15,0,0,1,0-2l1.52-2.61,1.52-2.62a1.5,1.5,0,0,1,1.6-.76,2.14,2.14,0,0,1,1.57,1.28"/><path class="cls-55" d="M1634.69,632.63l60.38,11.85,66.09,12.95c0,.83-.08,1.64-.13,2.46l-66-13.06-60.34-11.94c0-.74,0-1.5,0-2.26"/><path class="cls-26" d="M1643,623.33l21.68,4.07,22.38,4.21-.06,2q-11.32-2.13-22.36-4.24l-21.66-4.1c0-.64,0-1.29,0-1.93"/><path class="cls-26" d="M1643,626.48l18.63,3.54,19.15,3.65q0,1-.06,2L1661.6,632,1643,628.41l0-1.93"/><path class="cls-26" d="M1756,604.63l-17.37-2.79-16.93-2.74c0,.71-.06,1.4-.09,2.09l16.94,2.76,17.34,2.81c0-.71.08-1.42.11-2.13"/><path class="cls-26" d="M1755.82,608.11l-29.63-4.84-.09,2.09,29.62,4.88c0-.71.07-1.42.1-2.13"/><path class="cls-57" d="M1768.92,640.73q.38-6.43.73-12.92t.74-13.06l-1.09.91q-.36,6.58-.73,13.12t-.73,13l1.08-1m-1.77,1.68-1.09,1c.2-3.75.41-7.5.62-11.27s.42-7.56.63-11.36l1.1-1q-.32,5.68-.63,11.32l-.63,11.22"/><polygon class="cls-83" points="1761.08 657.43 1772.48 645.63 1772.41 648.03 1761.01 659.88 1761.08 657.43"/><polygon class="cls-80" points="1733.56 603.76 1745.04 594.92 1741.26 660.13 1729.89 671.99 1733.56 603.76"/><polygon class="cls-81" points="1604.14 584.18 1619.29 576.11 1745.04 594.92 1733.56 603.76 1604.14 584.18"/><path class="cls-84" d="M1604.14,584.18l61.73,9.34,67.69,10.24q-.93,17.41-1.86,34.52T1729.89,672l-66-13.06L1603.52,647q.17-15.42.31-31.06t.31-31.76"/><path class="cls-85" d="M1669.41,594.06q5.13,17.61,10.27,35.14t10.24,34.89l19.7,3.89,20.24,4q.9-16.72,1.81-33.71t1.86-34.52l-32.78-5-31.34-4.74"/><path class="cls-55" d="M1612.14,616.26l40.11,7,42.56,7.4-.21,4.92L1652.13,628l-40.05-7.11.06-4.65"/><path class="cls-55" d="M1612.05,623.17l30.16,5.41,31.54,5.64c0,1.61-.11,3.22-.16,4.82l-31.49-5.74L1612,627.8c0-1.53,0-3.08.06-4.63"/><path class="cls-26" d="M1633.77,603.3c.5,1,1,2.1,1.47,3.15s1,2.09,1.46,3.14a2.14,2.14,0,0,1,0,2.06,1.54,1.54,0,0,1-1.64.75l-3-.51-3-.5a2.19,2.19,0,0,1-1.58-1.29,2.13,2.13,0,0,1,0-2.05c.51-.88,1-1.75,1.56-2.63s1-1.77,1.56-2.65a1.55,1.55,0,0,1,1.64-.77,2.12,2.12,0,0,1,1.59,1.3M1623,604.38h0a2.15,2.15,0,0,0,1.58,1.29,1.52,1.52,0,0,0,1.61-.77l1.56-2.63,1.57-2.66a2.23,2.23,0,0,0,0-2.06,2.17,2.17,0,0,0-1.59-1.28l-3-.48-3-.47a1.53,1.53,0,0,0-1.62.77,2.18,2.18,0,0,0,0,2c.49,1.05,1,2.09,1.46,3.13s.94,2.07,1.43,3.11m-4.24-3.52c.48,1,1,2.07,1.45,3.11s.94,2.08,1.43,3.11a2.22,2.22,0,0,1,0,2,1.48,1.48,0,0,1-1.6.75l-3-.5-3-.5a2.11,2.11,0,0,1-1.56-1.27,2.15,2.15,0,0,1,0-2c.5-.87,1-1.74,1.51-2.61l1.52-2.62a1.5,1.5,0,0,1,1.6-.76,2.08,2.08,0,0,1,1.57,1.27"/><path class="cls-55" d="M1603.55,644.74l60.37,11.84q32,6.3,66.1,13c0,.82-.09,1.64-.13,2.45l-66-13.06L1603.52,647l0-2.26"/><path class="cls-26" d="M1611.89,635.44l21.68,4.06,22.38,4.22-.06,2-22.36-4.24q-10.93-2.09-21.66-4.1c0-.65,0-1.29,0-1.93"/><path class="cls-26" d="M1611.85,638.59l18.64,3.54,19.14,3.65c0,.66,0,1.32-.05,2l-19.13-3.67-18.62-3.57c0-.64,0-1.28,0-1.93"/><path class="cls-26" d="M1724.86,616.73l-17.37-2.79-16.94-2.73c0,.7,0,1.4-.08,2.09l16.93,2.75,17.35,2.81c0-.7.07-1.42.11-2.13"/><path class="cls-26" d="M1724.68,620.21,1695,615.37c0,.7,0,1.4-.08,2.09l29.61,4.88c0-.71.07-1.41.11-2.13"/><path class="cls-57" d="M1737.78,652.84q.36-6.44.72-12.92t.74-13.06l-1.09.91q-.36,6.59-.73,13.12t-.73,13l1.09-1m-1.77,1.67-1.1,1c.21-3.75.41-7.51.62-11.27s.42-7.57.63-11.37l1.1-.94c-.21,3.79-.42,7.55-.62,11.31s-.42,7.49-.63,11.22"/><polygon class="cls-83" points="1729.93 669.53 1741.34 657.73 1741.26 660.13 1729.86 671.99 1729.93 669.53"/><polygon class="cls-86" points="1878.77 588.55 1758.82 574.43 1735.63 586.17 1862.38 602.25 1878.77 588.55"/><path class="cls-87" d="M1862.37,602.25l-65.45-8.3-61.29-7.77q.27,23.21.54,46,.27,22.56.52,44.69l59.6,10.47,63.5,11.17q.63-23.44,1.27-47.39.64-24.17,1.31-48.85"/><path class="cls-77" d="M1849,667.59l-46.23-7.45q-22.38-3.6-44.1-7.1c0,1.67,0,3.32,0,5l44,7.2,46.15,7.57c0-1.74.07-3.46.11-5.2"/><path class="cls-77" d="M1848.79,674.62l-35.22-5.81-34-5.59c0,1.68,0,3.35,0,5l33.94,5.68,35.16,5.88.12-5.17"/><path class="cls-88" d="M1860,689.66l-63.69-10.92-59.74-10.23,0,2.78,59.69,10.31q31.13,5.39,63.63,11c0-1,0-2,.08-3"/><path class="cls-88" d="M1862.37,602.25q-.25,9.76-.52,19.41t-.51,19.18l-64.71-4.48-60.45-4.19q-.14-11.35-.26-22.82t-.28-23.17l61.28,7.77,65.45,8.3"/><path class="cls-88" d="M1849.3,652.67q-13.93-2.16-27.58-4.24l-26.84-4.12c0,3.25,0,6.47-.06,9.68,8.83,1.41,17.77,2.82,26.76,4.24l27.49,4.36q.11-4.94.23-9.92"/><path class="cls-26" d="M1840.5,618c-.71,1.17-1.44,2.32-2.15,3.46s-1.42,2.3-2.14,3.44a2.65,2.65,0,0,0,0,2.66,2.87,2.87,0,0,0,2.17,1.62l4.12.59,4.16.59a2.17,2.17,0,0,0,2.25-1,2.75,2.75,0,0,0,.06-2.67c-.66-1.33-1.33-2.69-2-4s-1.32-2.68-2-4a2.86,2.86,0,0,0-2.19-1.63,2.16,2.16,0,0,0-2.23,1m-6,2.86a2.16,2.16,0,0,1-2.22,1,2.87,2.87,0,0,1-2.16-1.63c-.65-1.34-1.32-2.67-2-4s-1.34-2.66-2-4a2.75,2.75,0,0,1,0-2.67,2.17,2.17,0,0,1,2.21-1l4.11.55,4.11.54a2.88,2.88,0,0,1,2.19,1.63,2.72,2.72,0,0,1,0,2.67c-.72,1.17-1.43,2.32-2.15,3.47s-1.41,2.31-2.12,3.45m-14.55-5.66c-.69,1.14-1.37,2.29-2.07,3.42s-1.37,2.3-2.06,3.42a2.65,2.65,0,0,0,0,2.63,2.84,2.84,0,0,0,2.13,1.61l4,.58,4.07.57a2.12,2.12,0,0,0,2.18-1,2.72,2.72,0,0,0,.06-2.63c-.66-1.33-1.33-2.66-2-4l-2-4a2.81,2.81,0,0,0-2.15-1.62,2.1,2.1,0,0,0-2.19,1"/><path class="cls-62" d="M1878.77,588.55l-7.94,6.63-8.46,7.07q-.66,24.79-1.31,49-.64,23.91-1.27,47.24l8.26-9.76,7.75-9.18q.72-22.09,1.46-44.73.75-22.85,1.51-46.27"/><path class="cls-63" d="M1869.43,670.81q.3-10.35.63-20.81t.63-21.16l2.62-2.52q-.33,10.53-.66,21t-.64,20.62c-.85,1-1.72,1.92-2.58,2.9"/><path class="cls-63" d="M1865,675.77q.24-8.09.47-16.24t.46-16.45l2.7-2.69q-.24,8.18-.48,16.3t-.48,16.09l-2.67,3"/><polygon class="cls-89" points="1860.04 689.66 1876.09 671.13 1875.98 673.96 1859.95 692.61 1860.04 689.66"/><polygon class="cls-26" points="1859.79 698.49 1861.66 602.81 1736.07 586.23 1861.97 601.73 1878.77 588.55 1862.93 602.84 1859.79 698.49"/><path class="cls-89" d="M1735.63,586.17l126,16.64s-69.74-5-126-16.64"/><polygon class="cls-86" points="1843.46 607.77 1723.51 593.65 1700.32 605.39 1827.06 621.47 1843.46 607.77"/><path class="cls-87" d="M1827.06,621.47l-65.45-8.3-61.29-7.77q.27,23.21.54,46,.27,22.56.53,44.69L1761,706.54l63.5,11.17q.63-23.44,1.27-47.39.64-24.17,1.31-48.85"/><path class="cls-77" d="M1813.64,686.81l-46.23-7.45-44.1-7.1c0,1.67,0,3.32,0,5l44,7.2,46.16,7.56c0-1.73.07-3.45.11-5.19"/><path class="cls-77" d="M1813.48,693.83l-35.22-5.8-34-5.59c0,1.68,0,3.35,0,5l33.94,5.68,35.16,5.88c0-1.72.09-3.44.12-5.18"/><path class="cls-88" d="M1824.72,708.88,1761,698l-59.75-10.24c0,.94,0,1.86,0,2.79L1761,700.82l63.63,11c0-1,0-2,.08-2.94"/><path class="cls-88" d="M1827.06,621.47q-.25,9.76-.52,19.41t-.51,19.17l-64.71-4.47-60.45-4.19q-.13-11.35-.26-22.82t-.28-23.17l61.28,7.77,65.45,8.3"/><path class="cls-88" d="M1814,671.88l-27.58-4.24-26.84-4.11q0,4.86-.06,9.68c8.83,1.41,17.77,2.82,26.76,4.24l27.48,4.36q.12-4.93.24-9.93"/><path class="cls-26" d="M1805.19,637.2c-.71,1.17-1.44,2.32-2.15,3.46s-1.42,2.3-2.14,3.45a2.64,2.64,0,0,0,0,2.65,2.87,2.87,0,0,0,2.17,1.62l4.12.59,4.16.59a2.17,2.17,0,0,0,2.25-1,2.75,2.75,0,0,0,.06-2.67l-2-4c-.67-1.33-1.32-2.68-2-4a2.83,2.83,0,0,0-2.19-1.64,2.16,2.16,0,0,0-2.23,1m-6,2.86a2.17,2.17,0,0,1-2.21,1,2.87,2.87,0,0,1-2.17-1.63c-.65-1.34-1.32-2.67-2-4s-1.34-2.66-2-4a2.75,2.75,0,0,1,0-2.67,2.15,2.15,0,0,1,2.21-1l4.11.54,4.11.54a2.88,2.88,0,0,1,2.19,1.63,2.74,2.74,0,0,1,0,2.68c-.72,1.16-1.43,2.31-2.15,3.45s-1.41,2.32-2.12,3.46m-14.55-5.66c-.69,1.14-1.37,2.29-2.07,3.42s-1.37,2.3-2.06,3.42a2.67,2.67,0,0,0,0,2.63,2.84,2.84,0,0,0,2.13,1.61l4.05.58,4.07.57a2.12,2.12,0,0,0,2.18-1,2.72,2.72,0,0,0,.06-2.63c-.66-1.33-1.33-2.66-2-4l-2-4a2.84,2.84,0,0,0-2.16-1.62,2.1,2.1,0,0,0-2.19,1"/><path class="cls-62" d="M1843.46,607.77l-7.94,6.63-8.46,7.07q-.66,24.79-1.31,49-.64,23.91-1.27,47.24l8.26-9.76,7.75-9.18q.72-22.1,1.46-44.73.75-22.85,1.51-46.27"/><path class="cls-63" d="M1834.12,690q.3-10.35.63-20.81t.63-21.16l2.62-2.52q-.33,10.53-.66,21t-.64,20.62c-.85,1-1.72,1.92-2.58,2.9"/><path class="cls-63" d="M1829.68,695q.24-8.09.47-16.24t.46-16.45l2.7-2.69q-.24,8.17-.48,16.3t-.48,16.09l-2.67,3"/><polygon class="cls-89" points="1824.73 708.88 1840.78 690.35 1840.67 693.18 1824.64 711.82 1824.73 708.88"/><polygon class="cls-26" points="1824.48 717.72 1826.35 622.03 1700.76 605.45 1826.66 620.95 1843.46 607.77 1827.62 622.06 1824.48 717.72"/><path class="cls-89" d="M1700.32,605.39l126,16.64s-69.74-5-126-16.64"/></g><rect class="cls-1" width="1920" height="1080"/><line class="cls-1" x1="370.32" y1="622" x2="402.09" y2="610"/><line class="cls-1" x1="470.34" y1="706" x2="370.32" y2="818"/></svg>