<svg xmlns="http://www.w3.org/2000/svg" xmlns:xlink="http://www.w3.org/1999/xlink" viewBox="0 0 423 226"><defs><style>.cls-1{fill:none;}.cls-2{isolation:isolate;}.cls-3{clip-path:url(#clip-path);}.cls-4{opacity:0.3;mix-blend-mode:screen;}.cls-5{clip-path:url(#clip-path-2);}.cls-6{clip-path:url(#clip-path-3);}.cls-7{fill:#fff;}.cls-8{opacity:0.5;}.cls-22,.cls-25,.cls-8{mix-blend-mode:multiply;}.cls-9{clip-path:url(#clip-path-4);}.cls-10{clip-path:url(#clip-path-6);}.cls-11{fill:url(#linear-gradient);}.cls-12{clip-path:url(#clip-path-7);}.cls-13{clip-path:url(#clip-path-8);}.cls-14{fill:#5a46c5;}.cls-15{clip-path:url(#clip-path-9);}.cls-16{fill:url(#linear-gradient-2);}.cls-17{clip-path:url(#clip-path-10);}.cls-18{fill:url(#linear-gradient-3);}.cls-19{clip-path:url(#clip-path-11);}.cls-20{fill:url(#linear-gradient-4);}.cls-21{fill:#fffcba;}.cls-22{opacity:0.2;}.cls-23{clip-path:url(#clip-path-13);}.cls-24{fill:#9c3b61;}.cls-25{opacity:0.6;}.cls-26{clip-path:url(#clip-path-15);}.cls-27{fill:#008300;}</style><clipPath id="clip-path"><rect class="cls-1" x="-743.63" y="-801.51" width="1920" height="1080"/></clipPath><clipPath id="clip-path-2"><rect class="cls-1" x="3.63" y="0.55" width="415.74" height="50.57"/></clipPath><clipPath id="clip-path-3"><rect class="cls-1" x="3.63" y="0.55" width="415.74" height="50.56"/></clipPath><clipPath id="clip-path-4"><rect class="cls-1" x="3.63" y="34.14" width="415.74" height="211.27"/></clipPath><clipPath id="clip-path-6"><path class="cls-1" d="M378.53,205.3s-65.17.56-92.49,1.07c-106.34-.44-243.36-.9-243.36-.9-25,0-39-22.63-39-44.22v11.5a39.05,39.05,0,0,0,39.05,39.07H380.3a38.84,38.84,0,0,0,18.5-4.65c13.67,0,12.21-.12.41-.22a39.05,39.05,0,0,0,20.16-34.2v-11.5c0,21.59-12.85,44.05-40.84,44.05"/></clipPath><linearGradient id="linear-gradient" x1="-791.1" y1="1431.93" x2="-790.1" y2="1431.93" gradientTransform="translate(-328468.72 595490.78) rotate(180) scale(415.74)" gradientUnits="userSpaceOnUse"><stop offset="0" stop-color="#7caaff"/><stop offset="0.24" stop-color="#5c98ff"/><stop offset="0.85" stop-color="#5754c2"/><stop offset="1" stop-color="#5b75df"/></linearGradient><clipPath id="clip-path-7"><rect class="cls-1" x="21.35" y="48.68" width="380.31" height="149.78"/></clipPath><clipPath id="clip-path-8"><rect class="cls-1" x="21.35" y="48.69" width="380.31" height="149.78"/></clipPath><clipPath id="clip-path-9"><rect class="cls-1" x="4.02" y="14.59" width="414.95" height="210.86" rx="38.76" ry="38.76"/></clipPath><linearGradient id="linear-gradient-2" x1="-813.7" y1="1428.22" x2="-812.7" y2="1428.22" gradientTransform="translate(72567.46 41399.45) rotate(90) scale(50.66)" gradientUnits="userSpaceOnUse"><stop offset="0" stop-color="#5855ce"/><stop offset="0.71" stop-color="#5a46c5"/><stop offset="1" stop-color="#556cd7"/></linearGradient><clipPath id="clip-path-10"><rect class="cls-1" x="3.63" y="0.55" width="415.74" height="211.27" rx="41.4" ry="41.4"/></clipPath><linearGradient id="linear-gradient-3" x1="-785.47" y1="1429.39" x2="-784.47" y2="1429.39" gradientTransform="translate(-297889.35 -163595.46) rotate(-90) scale(208.55)" gradientUnits="userSpaceOnUse"><stop offset="0" stop-color="#62acf7"/><stop offset="0.06" stop-color="#61a0f0"/><stop offset="0.16" stop-color="#5e80dd"/><stop offset="0.22" stop-color="#5c69cf"/><stop offset="0.56" stop-color="#7590ff"/><stop offset="1" stop-color="#a3cafb"/></linearGradient><clipPath id="clip-path-11"><rect class="cls-1" x="21.35" y="22.58" width="380.31" height="157.44" rx="38.21" ry="38.21"/></clipPath><linearGradient id="linear-gradient-4" x1="-798.56" y1="1428.85" x2="-797.56" y2="1428.85" gradientTransform="translate(217351.59 121383.7) rotate(90) scale(151.97)" gradientUnits="userSpaceOnUse"><stop offset="0" stop-color="#96d300"/><stop offset="0.2" stop-color="#96d300"/><stop offset="0.81" stop-color="#008200"/><stop offset="1" stop-color="#009600"/></linearGradient><clipPath id="clip-path-13"><rect class="cls-1" x="24.88" y="120.41" width="373.23" height="43.38"/></clipPath><clipPath id="clip-path-15"><rect class="cls-1" x="88.5" y="67.8" width="246.01" height="64.45"/></clipPath></defs><title>play-btn</title><g class="cls-2"><g id="Layer_1" data-name="Layer 1"><g class="cls-3"><g class="cls-4"><g class="cls-5"><g class="cls-6"><path class="cls-7" d="M419.37,39.62v11.5c0-21.59-14-44.22-39.05-44.22,0,0-111.14-1.74-180.27-1.74C40.52,5.16,44.47,7.08,44.47,7.08c-28,0-40.84,22.45-40.84,44V39.62A39.05,39.05,0,0,1,42.7.55H380.32a39.05,39.05,0,0,1,39.05,39.07"/></g></g></g></g><g class="cls-3"><g class="cls-4"><g class="cls-10"><rect class="cls-11" x="3.63" y="161.25" width="415.74" height="50.56"/></g></g><g class="cls-8"><g class="cls-12"><g class="cls-13"><path class="cls-14" d="M363.44,198.47H59.56a38.21,38.21,0,0,1-38.21-38.21V86.9A38.21,38.21,0,0,1,59.56,48.68H363.44A38.22,38.22,0,0,1,401.65,86.9v73.36a38.21,38.21,0,0,1-38.21,38.21"/></g></g></g></g><g class="cls-15"><rect class="cls-16" x="4.02" y="14.59" width="414.95" height="210.86"/></g><g class="cls-17"><rect class="cls-18" x="3.63" y="0.55" width="415.75" height="211.27"/></g><g class="cls-19"><rect class="cls-20" x="21.35" y="22.58" width="380.31" height="157.44"/></g><g class="cls-3"><path class="cls-21" d="M398.11,64.13v8.74A34.48,34.48,0,0,0,363.8,38.23H59.18A34.46,34.46,0,0,0,24.89,72.87V64.13A34.46,34.46,0,0,1,59.18,29.49H363.8a34.48,34.48,0,0,1,34.31,34.64"/><g class="cls-22"><g class="cls-23"><g class="cls-23"><path class="cls-24" d="M24.88,129.15v-8.74A34.49,34.49,0,0,0,59.2,155.06H363.82a34.47,34.47,0,0,0,34.29-34.65v8.74a34.47,34.47,0,0,1-34.29,34.65H59.2a34.49,34.49,0,0,1-34.32-34.65"/></g></g></g><g class="cls-25"><g class="cls-26"><g class="cls-26"><path class="cls-27" d="M144.76,90c0,13.16-9.07,22.23-24.5,22.23-3.63,0-8.17-.45-8.17-.45v20.42H88.5V68.7s12.7-.9,27.22-.9c20,0,29,9.07,29,22.24m-29,5a5,5,0,1,0,0-10h-3.63V95Z"/><polygon class="cls-27" points="174.73 111.36 199.23 111.36 199.23 132.24 151.13 132.24 151.13 68.7 174.73 68.7 174.73 111.36"/><path class="cls-27" d="M275.49,132.24H249.17l-1.82-9.07h-11.8l-1.81,9.07H207.41L226,68.7h30.86c.1.37,18.61,63.54,18.61,63.54m-30.87-23.6-3.17-16.33-3.18,16.33Z"/><polygon class="cls-27" points="300.92 86.86 307.27 68.7 334.5 68.7 312.72 107.73 312.72 132.25 289.12 132.25 289.12 107.73 267.34 68.7 294.57 68.7 300.92 86.86"/></g></g></g><path class="cls-7" d="M144.76,83.68c0,13.16-9.07,22.24-24.5,22.24-3.63,0-8.17-.45-8.17-.45v20.42H88.5V62.35s12.7-.9,27.22-.9c20,0,29,9.07,29,22.23m-29,5a5,5,0,1,0,0-10h-3.63v10Z"/><polygon class="cls-7" points="174.73 105.01 199.23 105.01 199.23 125.89 151.13 125.89 151.13 62.35 174.73 62.35 174.73 105.01"/><path class="cls-7" d="M275.49,125.89H249.17l-1.82-9.07h-11.8l-1.81,9.07H207.41L226,62.35h30.86c.1.37,18.61,63.54,18.61,63.54m-30.87-23.6L241.45,86l-3.18,16.34Z"/><polygon class="cls-7" points="300.92 80.51 307.27 62.35 334.5 62.35 312.72 101.38 312.72 125.89 289.12 125.89 289.12 101.38 267.34 62.35 294.57 62.35 300.92 80.51"/></g></g></g></svg>